<svg xmlns="http://www.w3.org/2000/svg" viewBox="0 0 800 500" width="800" height="500" role="img" aria-label="Horror Classics">
  <defs>
    <radialGradient id="b" cx="30%" cy="30%" r="90%">
      <stop offset="0%" stop-color="#2a1519"/>
      <stop offset="55%" stop-color="#160b0d"/>
      <stop offset="100%" stop-color="#07040e"/>
    </radialGradient>
    <linearGradient id="s" x1="0" y1="0" x2="1" y2="1">
      <stop offset="0%" stop-color="#b0303a" stop-opacity=".5"/>
      <stop offset="100%" stop-color="#b0303a" stop-opacity="0"/>
    </linearGradient>
    <filter id="bl"><feGaussianBlur stdDeviation="40"/></filter>
  </defs>
  <rect width="800" height="500" fill="url(#b)"/>
  <circle cx="269" cy="353" r="0.85" fill="#fff" opacity="0.23"/><circle cx="652" cy="459" r="0.85" fill="#fff" opacity="0.70"/><circle cx="799" cy="464" r="1.36" fill="#fff" opacity="0.40"/><circle cx="673" cy="202" r="2.01" fill="#fff" opacity="0.60"/><circle cx="587" cy="27" r="2.08" fill="#fff" opacity="0.44"/><circle cx="598" cy="35" r="1.04" fill="#fff" opacity="0.60"/><circle cx="347" cy="124" r="0.92" fill="#fff" opacity="0.28"/><circle cx="333" cy="251" r="1.21" fill="#fff" opacity="0.31"/><circle cx="469" cy="357" r="1.52" fill="#fff" opacity="0.51"/><circle cx="159" cy="480" r="0.56" fill="#fff" opacity="0.54"/><circle cx="1" cy="468" r="1.08" fill="#fff" opacity="0.62"/><circle cx="306" cy="135" r="1.41" fill="#fff" opacity="0.22"/><circle cx="246" cy="176" r="1.38" fill="#fff" opacity="0.41"/><circle cx="451" cy="334" r="1.07" fill="#fff" opacity="0.63"/><circle cx="372" cy="62" r="1.45" fill="#fff" opacity="0.65"/><circle cx="740" cy="459" r="0.74" fill="#fff" opacity="0.42"/><circle cx="510" cy="144" r="1.77" fill="#fff" opacity="0.31"/><circle cx="343" cy="221" r="1.82" fill="#fff" opacity="0.16"/><circle cx="303" cy="210" r="0.41" fill="#fff" opacity="0.37"/><circle cx="479" cy="200" r="0.64" fill="#fff" opacity="0.70"/><circle cx="644" cy="388" r="0.45" fill="#fff" opacity="0.39"/><circle cx="184" cy="496" r="2.19" fill="#fff" opacity="0.58"/><circle cx="414" cy="404" r="2.16" fill="#fff" opacity="0.40"/><circle cx="662" cy="70" r="1.78" fill="#fff" opacity="0.45"/><circle cx="591" cy="293" r="0.52" fill="#fff" opacity="0.25"/><circle cx="191" cy="319" r="0.99" fill="#fff" opacity="0.27"/><circle cx="651" cy="223" r="0.80" fill="#fff" opacity="0.65"/><circle cx="744" cy="141" r="1.37" fill="#fff" opacity="0.51"/><circle cx="426" cy="432" r="0.54" fill="#fff" opacity="0.61"/><circle cx="506" cy="437" r="0.73" fill="#fff" opacity="0.18"/><circle cx="2" cy="173" r="2.16" fill="#fff" opacity="0.38"/><circle cx="99" cy="379" r="0.68" fill="#fff" opacity="0.32"/><circle cx="412" cy="424" r="2.00" fill="#fff" opacity="0.69"/><circle cx="146" cy="92" r="1.19" fill="#fff" opacity="0.30"/><circle cx="90" cy="75" r="0.72" fill="#fff" opacity="0.68"/><circle cx="234" cy="84" r="0.53" fill="#fff" opacity="0.60"/><circle cx="29" cy="245" r="1.27" fill="#fff" opacity="0.23"/><circle cx="785" cy="62" r="1.18" fill="#fff" opacity="0.38"/><circle cx="530" cy="362" r="1.88" fill="#fff" opacity="0.25"/><circle cx="713" cy="201" r="0.50" fill="#fff" opacity="0.19"/><circle cx="7" cy="189" r="0.56" fill="#fff" opacity="0.32"/><circle cx="420" cy="371" r="2.17" fill="#fff" opacity="0.38"/><circle cx="321" cy="353" r="0.81" fill="#fff" opacity="0.20"/><circle cx="345" cy="451" r="0.52" fill="#fff" opacity="0.29"/><circle cx="422" cy="214" r="1.11" fill="#fff" opacity="0.35"/><circle cx="540" cy="393" r="0.80" fill="#fff" opacity="0.20"/><circle cx="426" cy="18" r="1.07" fill="#fff" opacity="0.35"/><circle cx="457" cy="268" r="0.96" fill="#fff" opacity="0.49"/><circle cx="395" cy="270" r="1.97" fill="#fff" opacity="0.33"/><circle cx="6" cy="314" r="0.98" fill="#fff" opacity="0.18"/><circle cx="655" cy="390" r="1.06" fill="#fff" opacity="0.31"/><circle cx="92" cy="205" r="1.49" fill="#fff" opacity="0.16"/><circle cx="108" cy="275" r="2.16" fill="#fff" opacity="0.22"/><circle cx="444" cy="59" r="1.42" fill="#fff" opacity="0.62"/><circle cx="573" cy="210" r="2.15" fill="#fff" opacity="0.40"/><circle cx="399" cy="420" r="0.98" fill="#fff" opacity="0.35"/><circle cx="261" cy="286" r="0.41" fill="#fff" opacity="0.52"/><circle cx="401" cy="371" r="2.13" fill="#fff" opacity="0.41"/><circle cx="265" cy="346" r="0.80" fill="#fff" opacity="0.32"/><circle cx="795" cy="27" r="2.14" fill="#fff" opacity="0.41"/><circle cx="131" cy="200" r="1.48" fill="#fff" opacity="0.70"/><circle cx="205" cy="219" r="0.81" fill="#fff" opacity="0.29"/><circle cx="284" cy="350" r="0.55" fill="#fff" opacity="0.66"/><circle cx="7" cy="385" r="1.79" fill="#fff" opacity="0.51"/><circle cx="323" cy="407" r="1.28" fill="#fff" opacity="0.16"/><circle cx="270" cy="24" r="1.84" fill="#fff" opacity="0.15"/><circle cx="14" cy="214" r="1.92" fill="#fff" opacity="0.19"/><circle cx="57" cy="388" r="1.99" fill="#fff" opacity="0.20"/><circle cx="671" cy="163" r="1.21" fill="#fff" opacity="0.68"/><circle cx="175" cy="49" r="2.14" fill="#fff" opacity="0.24"/>
  <circle cx="620" cy="120" r="150" fill="#b0303a" opacity=".22" filter="url(#bl)"/>
  <circle cx="180" cy="400" r="170" fill="#b0303a" opacity=".16" filter="url(#bl)"/>
  <path d="M0 500 L800 500 L800 300 Q600 380 400 320 T0 360 Z" fill="url(#s)"/>
  <path d="M0 500 L800 500 L800 380 Q560 440 340 400 T0 430 Z" fill="#07040e" opacity=".75"/>
</svg>
