<svg xmlns="http://www.w3.org/2000/svg" viewBox="0 0 800 800" width="800" height="800" role="img" aria-label="ტოტოროს რბილი ფიგურა">
  <defs>
    <radialGradient id="bg" cx="50%" cy="42%" r="72%">
      <stop offset="0%" stop-color="#2c5b3b"/>
      <stop offset="45%" stop-color="#1a3724"/>
      <stop offset="100%" stop-color="#07040e"/>
    </radialGradient>
    <radialGradient id="halo" cx="50%" cy="50%" r="50%">
      <stop offset="0%" stop-color="#7fc98a" stop-opacity=".55"/>
      <stop offset="55%" stop-color="#7fc98a" stop-opacity=".14"/>
      <stop offset="100%" stop-color="#7fc98a" stop-opacity="0"/>
    </radialGradient>
    <linearGradient id="gMetal" x1="0" y1="0" x2="0.5" y2="1">
      <stop offset="0%" stop-color="#eef0ff"/>
      <stop offset="40%" stop-color="#b9bede"/>
      <stop offset="100%" stop-color="#6b6f95"/>
    </linearGradient>
    <linearGradient id="gAccent" x1="0" y1="0" x2="0.4" y2="1">
      <stop offset="0%" stop-color="#b2ffc1"/>
      <stop offset="55%" stop-color="#7fc98a"/>
      <stop offset="100%" stop-color="#406545"/>
    </linearGradient>
    <linearGradient id="vig" x1="0" y1="0" x2="0" y2="1">
      <stop offset="0%" stop-color="#000" stop-opacity=".45"/>
      <stop offset="40%" stop-color="#000" stop-opacity="0"/>
      <stop offset="100%" stop-color="#000" stop-opacity=".6"/>
    </linearGradient>
    <filter id="soft" x="-40%" y="-40%" width="180%" height="180%">
      <feGaussianBlur stdDeviation="16"/>
    </filter>
    <filter id="glow" x="-35%" y="-35%" width="170%" height="170%">
      <feDropShadow dx="0" dy="10" stdDeviation="14" flood-color="#000" flood-opacity=".55"/>
      <feDropShadow dx="0" dy="0" stdDeviation="9" flood-color="#7fc98a" flood-opacity=".55"/>
    </filter>
  </defs>

  <rect width="800" height="800" fill="url(#bg)"/>
  <g><circle cx="341" cy="235" r="1.56" fill="#fff" opacity="0.53"/><circle cx="595" cy="127" r="0.73" fill="#fff" opacity="0.51"/><circle cx="396" cy="44" r="1.15" fill="#fff" opacity="0.36"/><circle cx="337" cy="399" r="0.62" fill="#fff" opacity="0.26"/><circle cx="762" cy="723" r="1.38" fill="#fff" opacity="0.44"/><circle cx="429" cy="72" r="1.44" fill="#fff" opacity="0.59"/><circle cx="653" cy="42" r="1.18" fill="#fff" opacity="0.66"/><circle cx="68" cy="452" r="1.11" fill="#fff" opacity="0.56"/><circle cx="545" cy="603" r="2.15" fill="#fff" opacity="0.54"/><circle cx="211" cy="539" r="1.94" fill="#fff" opacity="0.46"/><circle cx="188" cy="503" r="1.17" fill="#fff" opacity="0.48"/><circle cx="151" cy="535" r="2.05" fill="#fff" opacity="0.28"/><circle cx="260" cy="354" r="2.14" fill="#fff" opacity="0.57"/><circle cx="674" cy="538" r="0.65" fill="#fff" opacity="0.63"/><circle cx="259" cy="667" r="0.82" fill="#fff" opacity="0.58"/><circle cx="636" cy="183" r="1.33" fill="#fff" opacity="0.21"/><circle cx="46" cy="147" r="2.00" fill="#fff" opacity="0.58"/><circle cx="786" cy="655" r="1.22" fill="#fff" opacity="0.56"/><circle cx="664" cy="493" r="0.85" fill="#fff" opacity="0.62"/><circle cx="182" cy="667" r="0.63" fill="#fff" opacity="0.33"/><circle cx="101" cy="791" r="0.98" fill="#fff" opacity="0.19"/><circle cx="378" cy="378" r="2.04" fill="#fff" opacity="0.29"/><circle cx="457" cy="511" r="1.93" fill="#fff" opacity="0.59"/><circle cx="566" cy="345" r="0.76" fill="#fff" opacity="0.44"/><circle cx="278" cy="628" r="1.33" fill="#fff" opacity="0.22"/><circle cx="586" cy="189" r="1.99" fill="#fff" opacity="0.35"/><circle cx="776" cy="57" r="2.14" fill="#fff" opacity="0.52"/><circle cx="721" cy="364" r="1.02" fill="#fff" opacity="0.54"/><circle cx="473" cy="23" r="1.98" fill="#fff" opacity="0.68"/><circle cx="43" cy="473" r="0.61" fill="#fff" opacity="0.51"/><circle cx="379" cy="226" r="0.80" fill="#fff" opacity="0.24"/><circle cx="88" cy="415" r="0.47" fill="#fff" opacity="0.18"/><circle cx="639" cy="421" r="1.79" fill="#fff" opacity="0.17"/><circle cx="171" cy="297" r="1.06" fill="#fff" opacity="0.19"/><circle cx="560" cy="371" r="1.89" fill="#fff" opacity="0.57"/><circle cx="226" cy="316" r="1.27" fill="#fff" opacity="0.45"/><circle cx="205" cy="370" r="1.18" fill="#fff" opacity="0.36"/><circle cx="259" cy="440" r="1.20" fill="#fff" opacity="0.47"/><circle cx="152" cy="593" r="1.34" fill="#fff" opacity="0.54"/><circle cx="593" cy="87" r="1.23" fill="#fff" opacity="0.63"/><circle cx="742" cy="695" r="0.86" fill="#fff" opacity="0.67"/><circle cx="686" cy="617" r="1.08" fill="#fff" opacity="0.41"/><circle cx="760" cy="121" r="1.31" fill="#fff" opacity="0.16"/><circle cx="522" cy="713" r="2.15" fill="#fff" opacity="0.35"/><circle cx="268" cy="694" r="1.25" fill="#fff" opacity="0.46"/><circle cx="261" cy="699" r="1.19" fill="#fff" opacity="0.28"/><circle cx="346" cy="684" r="2.12" fill="#fff" opacity="0.36"/><circle cx="80" cy="711" r="0.83" fill="#fff" opacity="0.40"/><circle cx="297" cy="273" r="1.67" fill="#fff" opacity="0.20"/><circle cx="738" cy="746" r="0.67" fill="#fff" opacity="0.63"/><circle cx="696" cy="438" r="2.17" fill="#fff" opacity="0.36"/><circle cx="132" cy="147" r="1.69" fill="#fff" opacity="0.31"/><circle cx="65" cy="125" r="0.88" fill="#fff" opacity="0.57"/><circle cx="399" cy="160" r="1.97" fill="#fff" opacity="0.37"/><circle cx="735" cy="298" r="0.97" fill="#fff" opacity="0.56"/><circle cx="539" cy="43" r="1.64" fill="#fff" opacity="0.37"/><circle cx="130" cy="224" r="1.21" fill="#fff" opacity="0.20"/><circle cx="161" cy="1" r="1.65" fill="#fff" opacity="0.64"/><circle cx="618" cy="754" r="0.71" fill="#fff" opacity="0.31"/><circle cx="371" cy="435" r="0.89" fill="#fff" opacity="0.32"/><circle cx="600" cy="516" r="1.12" fill="#fff" opacity="0.19"/><circle cx="113" cy="544" r="0.44" fill="#fff" opacity="0.64"/><circle cx="2" cy="18" r="0.74" fill="#fff" opacity="0.47"/><circle cx="136" cy="85" r="1.07" fill="#fff" opacity="0.65"/><circle cx="427" cy="314" r="2.13" fill="#fff" opacity="0.27"/><circle cx="215" cy="290" r="2.13" fill="#fff" opacity="0.54"/><circle cx="433" cy="602" r="1.47" fill="#fff" opacity="0.39"/><circle cx="317" cy="154" r="1.47" fill="#fff" opacity="0.50"/><circle cx="727" cy="779" r="1.95" fill="#fff" opacity="0.16"/><circle cx="658" cy="442" r="0.88" fill="#fff" opacity="0.27"/><circle cx="412" cy="2" r="1.64" fill="#fff" opacity="0.64"/><circle cx="4" cy="638" r="1.89" fill="#fff" opacity="0.26"/><circle cx="386" cy="2" r="0.60" fill="#fff" opacity="0.21"/><circle cx="371" cy="709" r="1.00" fill="#fff" opacity="0.32"/><circle cx="342" cy="683" r="0.45" fill="#fff" opacity="0.25"/><circle cx="593" cy="406" r="2.19" fill="#fff" opacity="0.51"/><circle cx="195" cy="720" r="1.83" fill="#fff" opacity="0.69"/><circle cx="618" cy="53" r="2.01" fill="#fff" opacity="0.51"/><circle cx="148" cy="726" r="1.35" fill="#fff" opacity="0.19"/><circle cx="364" cy="799" r="0.91" fill="#fff" opacity="0.30"/><circle cx="717" cy="255" r="2.13" fill="#fff" opacity="0.16"/><circle cx="353" cy="74" r="1.70" fill="#fff" opacity="0.39"/><circle cx="236" cy="532" r="1.01" fill="#fff" opacity="0.37"/><circle cx="545" cy="496" r="1.61" fill="#fff" opacity="0.43"/><circle cx="261" cy="254" r="0.60" fill="#fff" opacity="0.24"/><circle cx="258" cy="620" r="1.25" fill="#fff" opacity="0.24"/><circle cx="244" cy="796" r="1.51" fill="#fff" opacity="0.57"/><circle cx="761" cy="415" r="1.63" fill="#fff" opacity="0.16"/><circle cx="336" cy="70" r="1.08" fill="#fff" opacity="0.42"/><circle cx="634" cy="557" r="1.07" fill="#fff" opacity="0.25"/></g>
  <g><circle cx="21" cy="631" r="2.6" fill="url(#gAccent)" opacity="0.08"/><circle cx="116" cy="425" r="6.3" fill="url(#gAccent)" opacity="0.08"/><circle cx="474" cy="68" r="4.9" fill="url(#gAccent)" opacity="0.06"/><circle cx="316" cy="689" r="4.4" fill="url(#gAccent)" opacity="0.10"/><circle cx="217" cy="344" r="6.0" fill="url(#gAccent)" opacity="0.14"/><circle cx="126" cy="360" r="2.3" fill="url(#gAccent)" opacity="0.16"/><circle cx="529" cy="732" r="2.6" fill="url(#gAccent)" opacity="0.15"/><circle cx="548" cy="684" r="4.0" fill="url(#gAccent)" opacity="0.15"/><circle cx="203" cy="44" r="2.9" fill="url(#gAccent)" opacity="0.14"/><circle cx="569" cy="708" r="5.4" fill="url(#gAccent)" opacity="0.15"/><circle cx="496" cy="300" r="4.3" fill="url(#gAccent)" opacity="0.04"/><circle cx="770" cy="376" r="6.1" fill="url(#gAccent)" opacity="0.10"/><circle cx="372" cy="35" r="3.8" fill="url(#gAccent)" opacity="0.07"/><circle cx="275" cy="238" r="3.7" fill="url(#gAccent)" opacity="0.06"/></g>
  <circle cx="400" cy="400" r="250" fill="url(#halo)"/>
  <ellipse cx="400" cy="610" rx="200" ry="34" fill="#000" opacity=".45" filter="url(#soft)"/>

  <g opacity="0.5" transform="rotate(24 400 400)">
    <circle cx="400" cy="400" r="248" fill="none" stroke="#7fc98a" stroke-width="1.6" stroke-dasharray="2 14"/>
    <circle cx="400" cy="400" r="212" fill="none" stroke="#7fc98a" stroke-width="1" opacity=".7"/>
    <circle cx="400" cy="400" r="284" fill="none" stroke="#7fc98a" stroke-width="1" stroke-dasharray="60 26" opacity=".45"/>
  </g>

  <g filter="url(#glow)" transform="translate(400 400) rotate(0) scale(5.4) translate(-50 -50)">
    
    <ellipse cx="50" cy="60" rx="32" ry="34" fill="url(#gMetal)" stroke="rgba(10,6,20,.55)" stroke-width="2" stroke-linejoin="round" stroke-linecap="round"/>
    <ellipse cx="50" cy="66" rx="22" ry="26" fill="#f4f0ff" opacity=".85"/>
    <path d="M30 30 l-4 -16 l14 10 z M70 30 l4 -16 l-14 10 z" fill="url(#gMetal)" stroke="rgba(10,6,20,.55)" stroke-width="1.4" stroke-linejoin="round" stroke-linecap="round"/>
    <circle cx="40" cy="46" r="4" fill="#100a1c"/><circle cx="60" cy="46" r="4" fill="#100a1c"/>
    <path d="M46 54 l4 4 l4 -4 z" fill="#100a1c"/>
    <path d="M42 62 h4 M54 62 h4 M40 70 h6 M54 70 h6" stroke="url(#gAccent)" stroke-width="2" stroke-linecap="round"/>
    <path d="M22 46 h-12 M22 52 h-12 M78 46 h12 M78 52 h12" stroke="url(#gMetal)" stroke-width="1.6" opacity=".7"/>
  </g>

  <rect width="800" height="800" fill="url(#vig)"/>
</svg>
