<svg xmlns="http://www.w3.org/2000/svg" viewBox="0 0 800 800" width="800" height="800" role="img" aria-label="CBI სამკერდე ნიშანი">
  <defs>
    <radialGradient id="bg" cx="50%" cy="42%" r="72%">
      <stop offset="0%" stop-color="#2a416e"/>
      <stop offset="45%" stop-color="#192743"/>
      <stop offset="100%" stop-color="#07040e"/>
    </radialGradient>
    <radialGradient id="halo" cx="50%" cy="50%" r="50%">
      <stop offset="0%" stop-color="#7fa7d4" stop-opacity=".55"/>
      <stop offset="55%" stop-color="#7fa7d4" stop-opacity=".14"/>
      <stop offset="100%" stop-color="#7fa7d4" stop-opacity="0"/>
    </radialGradient>
    <linearGradient id="gMetal" x1="0" y1="0" x2="0.5" y2="1">
      <stop offset="0%" stop-color="#eef0ff"/>
      <stop offset="40%" stop-color="#b9bede"/>
      <stop offset="100%" stop-color="#6b6f95"/>
    </linearGradient>
    <linearGradient id="gAccent" x1="0" y1="0" x2="0.4" y2="1">
      <stop offset="0%" stop-color="#b2eaff"/>
      <stop offset="55%" stop-color="#7fa7d4"/>
      <stop offset="100%" stop-color="#40546a"/>
    </linearGradient>
    <linearGradient id="vig" x1="0" y1="0" x2="0" y2="1">
      <stop offset="0%" stop-color="#000" stop-opacity=".45"/>
      <stop offset="40%" stop-color="#000" stop-opacity="0"/>
      <stop offset="100%" stop-color="#000" stop-opacity=".6"/>
    </linearGradient>
    <filter id="soft" x="-40%" y="-40%" width="180%" height="180%">
      <feGaussianBlur stdDeviation="16"/>
    </filter>
    <filter id="glow" x="-35%" y="-35%" width="170%" height="170%">
      <feDropShadow dx="0" dy="10" stdDeviation="14" flood-color="#000" flood-opacity=".55"/>
      <feDropShadow dx="0" dy="0" stdDeviation="9" flood-color="#7fa7d4" flood-opacity=".55"/>
    </filter>
  </defs>

  <rect width="800" height="800" fill="url(#bg)"/>
  <g><circle cx="419" cy="536" r="0.82" fill="#fff" opacity="0.42"/><circle cx="505" cy="311" r="1.86" fill="#fff" opacity="0.49"/><circle cx="421" cy="337" r="1.11" fill="#fff" opacity="0.35"/><circle cx="491" cy="313" r="1.59" fill="#fff" opacity="0.37"/><circle cx="236" cy="455" r="0.47" fill="#fff" opacity="0.67"/><circle cx="153" cy="139" r="1.23" fill="#fff" opacity="0.53"/><circle cx="472" cy="210" r="1.60" fill="#fff" opacity="0.20"/><circle cx="70" cy="405" r="2.16" fill="#fff" opacity="0.61"/><circle cx="272" cy="268" r="1.79" fill="#fff" opacity="0.50"/><circle cx="85" cy="275" r="1.66" fill="#fff" opacity="0.28"/><circle cx="140" cy="696" r="1.34" fill="#fff" opacity="0.38"/><circle cx="783" cy="328" r="2.01" fill="#fff" opacity="0.43"/><circle cx="487" cy="496" r="1.85" fill="#fff" opacity="0.62"/><circle cx="476" cy="285" r="1.44" fill="#fff" opacity="0.64"/><circle cx="353" cy="771" r="1.87" fill="#fff" opacity="0.48"/><circle cx="588" cy="148" r="1.61" fill="#fff" opacity="0.16"/><circle cx="430" cy="104" r="1.14" fill="#fff" opacity="0.21"/><circle cx="444" cy="419" r="0.43" fill="#fff" opacity="0.57"/><circle cx="484" cy="612" r="2.10" fill="#fff" opacity="0.60"/><circle cx="111" cy="74" r="1.32" fill="#fff" opacity="0.22"/><circle cx="150" cy="217" r="1.53" fill="#fff" opacity="0.20"/><circle cx="370" cy="448" r="1.16" fill="#fff" opacity="0.53"/><circle cx="575" cy="449" r="0.60" fill="#fff" opacity="0.68"/><circle cx="159" cy="80" r="0.51" fill="#fff" opacity="0.47"/><circle cx="413" cy="605" r="1.32" fill="#fff" opacity="0.48"/><circle cx="227" cy="565" r="0.45" fill="#fff" opacity="0.39"/><circle cx="61" cy="489" r="2.18" fill="#fff" opacity="0.47"/><circle cx="791" cy="453" r="1.34" fill="#fff" opacity="0.61"/><circle cx="165" cy="701" r="1.30" fill="#fff" opacity="0.44"/><circle cx="127" cy="436" r="1.99" fill="#fff" opacity="0.41"/><circle cx="466" cy="515" r="2.12" fill="#fff" opacity="0.22"/><circle cx="752" cy="74" r="1.50" fill="#fff" opacity="0.68"/><circle cx="640" cy="716" r="1.31" fill="#fff" opacity="0.59"/><circle cx="647" cy="628" r="0.56" fill="#fff" opacity="0.17"/><circle cx="629" cy="776" r="1.44" fill="#fff" opacity="0.50"/><circle cx="180" cy="783" r="0.58" fill="#fff" opacity="0.69"/><circle cx="798" cy="514" r="0.41" fill="#fff" opacity="0.61"/><circle cx="527" cy="465" r="1.23" fill="#fff" opacity="0.53"/><circle cx="187" cy="211" r="1.76" fill="#fff" opacity="0.52"/><circle cx="411" cy="55" r="1.20" fill="#fff" opacity="0.69"/><circle cx="523" cy="739" r="0.86" fill="#fff" opacity="0.66"/><circle cx="269" cy="484" r="1.26" fill="#fff" opacity="0.68"/><circle cx="766" cy="567" r="0.77" fill="#fff" opacity="0.30"/><circle cx="183" cy="258" r="1.90" fill="#fff" opacity="0.52"/><circle cx="82" cy="20" r="1.77" fill="#fff" opacity="0.19"/><circle cx="256" cy="360" r="1.07" fill="#fff" opacity="0.48"/><circle cx="347" cy="176" r="1.00" fill="#fff" opacity="0.23"/><circle cx="716" cy="114" r="0.93" fill="#fff" opacity="0.19"/><circle cx="475" cy="109" r="0.74" fill="#fff" opacity="0.66"/><circle cx="478" cy="508" r="0.54" fill="#fff" opacity="0.30"/><circle cx="746" cy="306" r="1.50" fill="#fff" opacity="0.50"/><circle cx="94" cy="494" r="0.77" fill="#fff" opacity="0.61"/><circle cx="550" cy="735" r="1.57" fill="#fff" opacity="0.54"/><circle cx="300" cy="618" r="0.70" fill="#fff" opacity="0.59"/><circle cx="662" cy="126" r="1.27" fill="#fff" opacity="0.21"/><circle cx="734" cy="112" r="1.81" fill="#fff" opacity="0.51"/><circle cx="598" cy="582" r="1.58" fill="#fff" opacity="0.35"/><circle cx="784" cy="225" r="1.79" fill="#fff" opacity="0.35"/><circle cx="224" cy="649" r="0.75" fill="#fff" opacity="0.61"/><circle cx="141" cy="247" r="0.91" fill="#fff" opacity="0.26"/><circle cx="450" cy="339" r="0.52" fill="#fff" opacity="0.18"/><circle cx="307" cy="239" r="1.91" fill="#fff" opacity="0.25"/><circle cx="163" cy="614" r="1.70" fill="#fff" opacity="0.21"/><circle cx="564" cy="719" r="1.19" fill="#fff" opacity="0.23"/><circle cx="737" cy="410" r="1.62" fill="#fff" opacity="0.37"/><circle cx="59" cy="155" r="0.54" fill="#fff" opacity="0.44"/><circle cx="208" cy="729" r="1.08" fill="#fff" opacity="0.42"/><circle cx="363" cy="92" r="1.54" fill="#fff" opacity="0.24"/><circle cx="576" cy="66" r="1.00" fill="#fff" opacity="0.56"/><circle cx="560" cy="236" r="0.40" fill="#fff" opacity="0.58"/><circle cx="647" cy="662" r="0.71" fill="#fff" opacity="0.30"/><circle cx="418" cy="550" r="1.55" fill="#fff" opacity="0.59"/><circle cx="543" cy="347" r="1.16" fill="#fff" opacity="0.56"/><circle cx="338" cy="786" r="0.68" fill="#fff" opacity="0.49"/><circle cx="426" cy="629" r="1.12" fill="#fff" opacity="0.26"/><circle cx="472" cy="331" r="1.69" fill="#fff" opacity="0.23"/><circle cx="607" cy="644" r="2.05" fill="#fff" opacity="0.23"/><circle cx="112" cy="750" r="0.68" fill="#fff" opacity="0.30"/><circle cx="488" cy="194" r="1.11" fill="#fff" opacity="0.20"/><circle cx="49" cy="456" r="0.40" fill="#fff" opacity="0.32"/><circle cx="472" cy="307" r="0.68" fill="#fff" opacity="0.31"/><circle cx="146" cy="783" r="1.40" fill="#fff" opacity="0.49"/><circle cx="334" cy="177" r="2.06" fill="#fff" opacity="0.35"/><circle cx="228" cy="737" r="1.60" fill="#fff" opacity="0.45"/><circle cx="783" cy="351" r="1.35" fill="#fff" opacity="0.60"/><circle cx="656" cy="667" r="0.78" fill="#fff" opacity="0.57"/><circle cx="60" cy="712" r="1.39" fill="#fff" opacity="0.64"/><circle cx="339" cy="604" r="1.56" fill="#fff" opacity="0.23"/><circle cx="742" cy="66" r="1.46" fill="#fff" opacity="0.32"/><circle cx="154" cy="104" r="1.95" fill="#fff" opacity="0.41"/></g>
  <g><circle cx="587" cy="180" r="6.3" fill="url(#gAccent)" opacity="0.15"/><circle cx="626" cy="505" r="2.0" fill="url(#gAccent)" opacity="0.17"/><circle cx="650" cy="75" r="2.3" fill="url(#gAccent)" opacity="0.09"/><circle cx="249" cy="647" r="6.1" fill="url(#gAccent)" opacity="0.16"/><circle cx="137" cy="369" r="6.3" fill="url(#gAccent)" opacity="0.14"/><circle cx="108" cy="693" r="6.0" fill="url(#gAccent)" opacity="0.08"/><circle cx="628" cy="656" r="4.8" fill="url(#gAccent)" opacity="0.15"/><circle cx="75" cy="224" r="6.8" fill="url(#gAccent)" opacity="0.10"/><circle cx="173" cy="517" r="5.0" fill="url(#gAccent)" opacity="0.08"/><circle cx="645" cy="245" r="5.7" fill="url(#gAccent)" opacity="0.12"/><circle cx="280" cy="585" r="7.0" fill="url(#gAccent)" opacity="0.15"/><circle cx="240" cy="263" r="3.8" fill="url(#gAccent)" opacity="0.11"/><circle cx="64" cy="139" r="4.9" fill="url(#gAccent)" opacity="0.18"/><circle cx="169" cy="161" r="2.3" fill="url(#gAccent)" opacity="0.09"/></g>
  <circle cx="400" cy="400" r="250" fill="url(#halo)"/>
  <ellipse cx="400" cy="610" rx="200" ry="34" fill="#000" opacity=".45" filter="url(#soft)"/>

  <g opacity="0.32" transform="rotate(48 400 400)">
    <circle cx="400" cy="400" r="248" fill="none" stroke="#7fa7d4" stroke-width="1.6" stroke-dasharray="2 14"/>
    <circle cx="400" cy="400" r="212" fill="none" stroke="#7fa7d4" stroke-width="1" opacity=".7"/>
    <circle cx="400" cy="400" r="284" fill="none" stroke="#7fa7d4" stroke-width="1" stroke-dasharray="60 26" opacity=".45"/>
  </g>

  <g filter="url(#glow)" transform="translate(400 400) rotate(-8) scale(5) translate(-50 -50)">
    
    <path d="M50 10 L78 22 v26 c0 18 -12 32 -28 42 c-16 -10 -28 -24 -28 -42 V22 z" fill="url(#gAccent)" stroke="rgba(10,6,20,.55)" stroke-width="2.4" stroke-linejoin="round" stroke-linecap="round"/>
    <path d="M50 18 L70 27 v20 c0 13 -9 24 -20 31 c-11 -7 -20 -18 -20 -31 V27 z" fill="none" stroke="#f4f0ff" stroke-opacity=".55" stroke-width="1.6"/>
    <path d="M50 34 l4.5 9 l10 1.4 l-7.2 7 l1.7 10 l-9 -4.7 l-9 4.7 l1.7 -10 l-7.2 -7 l10 -1.4 z" fill="#f4f0ff" opacity=".85"/>
  </g>

  <rect width="800" height="800" fill="url(#vig)"/>
</svg>
