<svg xmlns="http://www.w3.org/2000/svg" viewBox="0 0 800 800" width="800" height="800" role="img" aria-label="მეკობრის ნიშნის ჭიქა">
  <defs>
    <radialGradient id="bg" cx="50%" cy="42%" r="72%">
      <stop offset="0%" stop-color="#50204c"/>
      <stop offset="45%" stop-color="#30142e"/>
      <stop offset="100%" stop-color="#07040e"/>
    </radialGradient>
    <radialGradient id="halo" cx="50%" cy="50%" r="50%">
      <stop offset="0%" stop-color="#f07ab0" stop-opacity=".55"/>
      <stop offset="55%" stop-color="#f07ab0" stop-opacity=".14"/>
      <stop offset="100%" stop-color="#f07ab0" stop-opacity="0"/>
    </radialGradient>
    <linearGradient id="gMetal" x1="0" y1="0" x2="0.5" y2="1">
      <stop offset="0%" stop-color="#eef0ff"/>
      <stop offset="40%" stop-color="#b9bede"/>
      <stop offset="100%" stop-color="#6b6f95"/>
    </linearGradient>
    <linearGradient id="gAccent" x1="0" y1="0" x2="0.4" y2="1">
      <stop offset="0%" stop-color="#ffabf6"/>
      <stop offset="55%" stop-color="#f07ab0"/>
      <stop offset="100%" stop-color="#783d58"/>
    </linearGradient>
    <linearGradient id="vig" x1="0" y1="0" x2="0" y2="1">
      <stop offset="0%" stop-color="#000" stop-opacity=".45"/>
      <stop offset="40%" stop-color="#000" stop-opacity="0"/>
      <stop offset="100%" stop-color="#000" stop-opacity=".6"/>
    </linearGradient>
    <filter id="soft" x="-40%" y="-40%" width="180%" height="180%">
      <feGaussianBlur stdDeviation="16"/>
    </filter>
    <filter id="glow" x="-35%" y="-35%" width="170%" height="170%">
      <feDropShadow dx="0" dy="10" stdDeviation="14" flood-color="#000" flood-opacity=".55"/>
      <feDropShadow dx="0" dy="0" stdDeviation="9" flood-color="#f07ab0" flood-opacity=".55"/>
    </filter>
  </defs>

  <rect width="800" height="800" fill="url(#bg)"/>
  <g><circle cx="377" cy="696" r="1.79" fill="#fff" opacity="0.31"/><circle cx="552" cy="514" r="1.42" fill="#fff" opacity="0.62"/><circle cx="295" cy="303" r="0.77" fill="#fff" opacity="0.62"/><circle cx="143" cy="91" r="1.27" fill="#fff" opacity="0.41"/><circle cx="70" cy="31" r="0.53" fill="#fff" opacity="0.35"/><circle cx="193" cy="774" r="0.64" fill="#fff" opacity="0.67"/><circle cx="32" cy="220" r="1.78" fill="#fff" opacity="0.31"/><circle cx="441" cy="35" r="0.86" fill="#fff" opacity="0.33"/><circle cx="118" cy="104" r="1.82" fill="#fff" opacity="0.35"/><circle cx="717" cy="729" r="2.16" fill="#fff" opacity="0.28"/><circle cx="118" cy="684" r="2.06" fill="#fff" opacity="0.46"/><circle cx="583" cy="259" r="1.81" fill="#fff" opacity="0.17"/><circle cx="793" cy="133" r="1.93" fill="#fff" opacity="0.37"/><circle cx="417" cy="790" r="2.10" fill="#fff" opacity="0.32"/><circle cx="600" cy="19" r="0.54" fill="#fff" opacity="0.49"/><circle cx="725" cy="1" r="1.40" fill="#fff" opacity="0.23"/><circle cx="472" cy="489" r="1.67" fill="#fff" opacity="0.59"/><circle cx="524" cy="17" r="2.02" fill="#fff" opacity="0.24"/><circle cx="471" cy="210" r="0.79" fill="#fff" opacity="0.37"/><circle cx="756" cy="417" r="0.94" fill="#fff" opacity="0.25"/><circle cx="588" cy="74" r="0.46" fill="#fff" opacity="0.44"/><circle cx="558" cy="501" r="1.83" fill="#fff" opacity="0.47"/><circle cx="3" cy="708" r="1.41" fill="#fff" opacity="0.27"/><circle cx="271" cy="325" r="1.14" fill="#fff" opacity="0.59"/><circle cx="562" cy="607" r="0.97" fill="#fff" opacity="0.25"/><circle cx="660" cy="137" r="1.50" fill="#fff" opacity="0.50"/><circle cx="767" cy="642" r="2.05" fill="#fff" opacity="0.23"/><circle cx="257" cy="617" r="1.48" fill="#fff" opacity="0.47"/><circle cx="522" cy="611" r="0.77" fill="#fff" opacity="0.18"/><circle cx="369" cy="392" r="1.16" fill="#fff" opacity="0.27"/><circle cx="759" cy="360" r="0.94" fill="#fff" opacity="0.51"/><circle cx="568" cy="465" r="1.54" fill="#fff" opacity="0.32"/><circle cx="275" cy="83" r="2.07" fill="#fff" opacity="0.61"/><circle cx="729" cy="687" r="1.89" fill="#fff" opacity="0.68"/><circle cx="210" cy="741" r="0.59" fill="#fff" opacity="0.35"/><circle cx="123" cy="124" r="1.72" fill="#fff" opacity="0.18"/><circle cx="219" cy="176" r="1.02" fill="#fff" opacity="0.57"/><circle cx="197" cy="673" r="1.85" fill="#fff" opacity="0.24"/><circle cx="69" cy="403" r="2.14" fill="#fff" opacity="0.37"/><circle cx="588" cy="121" r="1.65" fill="#fff" opacity="0.26"/><circle cx="519" cy="404" r="0.75" fill="#fff" opacity="0.22"/><circle cx="331" cy="157" r="1.65" fill="#fff" opacity="0.54"/><circle cx="96" cy="84" r="1.13" fill="#fff" opacity="0.38"/><circle cx="457" cy="105" r="1.34" fill="#fff" opacity="0.19"/><circle cx="294" cy="622" r="2.09" fill="#fff" opacity="0.60"/><circle cx="780" cy="369" r="1.37" fill="#fff" opacity="0.37"/><circle cx="240" cy="722" r="0.77" fill="#fff" opacity="0.66"/><circle cx="27" cy="357" r="1.51" fill="#fff" opacity="0.59"/><circle cx="490" cy="16" r="1.71" fill="#fff" opacity="0.34"/><circle cx="22" cy="146" r="1.71" fill="#fff" opacity="0.63"/><circle cx="72" cy="625" r="0.90" fill="#fff" opacity="0.53"/><circle cx="200" cy="614" r="1.26" fill="#fff" opacity="0.66"/><circle cx="314" cy="415" r="1.53" fill="#fff" opacity="0.17"/><circle cx="154" cy="717" r="2.12" fill="#fff" opacity="0.23"/><circle cx="79" cy="211" r="0.96" fill="#fff" opacity="0.67"/><circle cx="574" cy="277" r="1.67" fill="#fff" opacity="0.35"/><circle cx="318" cy="211" r="2.05" fill="#fff" opacity="0.64"/><circle cx="148" cy="744" r="2.02" fill="#fff" opacity="0.33"/><circle cx="441" cy="250" r="0.66" fill="#fff" opacity="0.29"/><circle cx="740" cy="563" r="2.12" fill="#fff" opacity="0.15"/><circle cx="589" cy="503" r="2.17" fill="#fff" opacity="0.22"/><circle cx="292" cy="781" r="1.75" fill="#fff" opacity="0.68"/><circle cx="621" cy="29" r="1.46" fill="#fff" opacity="0.53"/><circle cx="53" cy="487" r="1.00" fill="#fff" opacity="0.36"/><circle cx="305" cy="482" r="0.65" fill="#fff" opacity="0.16"/><circle cx="330" cy="252" r="2.13" fill="#fff" opacity="0.50"/><circle cx="359" cy="13" r="0.71" fill="#fff" opacity="0.66"/><circle cx="318" cy="39" r="1.31" fill="#fff" opacity="0.46"/><circle cx="236" cy="386" r="1.85" fill="#fff" opacity="0.40"/><circle cx="306" cy="472" r="1.15" fill="#fff" opacity="0.31"/><circle cx="225" cy="81" r="0.95" fill="#fff" opacity="0.40"/><circle cx="213" cy="28" r="0.78" fill="#fff" opacity="0.16"/><circle cx="610" cy="771" r="0.88" fill="#fff" opacity="0.35"/><circle cx="18" cy="569" r="1.40" fill="#fff" opacity="0.23"/><circle cx="670" cy="100" r="1.44" fill="#fff" opacity="0.65"/><circle cx="550" cy="794" r="0.71" fill="#fff" opacity="0.50"/><circle cx="234" cy="732" r="1.78" fill="#fff" opacity="0.65"/><circle cx="730" cy="138" r="0.56" fill="#fff" opacity="0.64"/><circle cx="16" cy="154" r="1.86" fill="#fff" opacity="0.45"/><circle cx="116" cy="156" r="1.55" fill="#fff" opacity="0.61"/><circle cx="509" cy="205" r="0.89" fill="#fff" opacity="0.24"/><circle cx="378" cy="35" r="1.78" fill="#fff" opacity="0.54"/><circle cx="631" cy="102" r="1.99" fill="#fff" opacity="0.66"/><circle cx="228" cy="194" r="2.06" fill="#fff" opacity="0.26"/><circle cx="389" cy="533" r="1.50" fill="#fff" opacity="0.18"/><circle cx="436" cy="53" r="0.84" fill="#fff" opacity="0.27"/><circle cx="401" cy="188" r="1.71" fill="#fff" opacity="0.38"/><circle cx="261" cy="417" r="2.15" fill="#fff" opacity="0.50"/><circle cx="336" cy="305" r="1.94" fill="#fff" opacity="0.59"/><circle cx="722" cy="781" r="1.17" fill="#fff" opacity="0.31"/></g>
  <g><circle cx="375" cy="662" r="4.6" fill="url(#gAccent)" opacity="0.09"/><circle cx="623" cy="762" r="6.7" fill="url(#gAccent)" opacity="0.09"/><circle cx="720" cy="378" r="5.4" fill="url(#gAccent)" opacity="0.11"/><circle cx="488" cy="725" r="3.7" fill="url(#gAccent)" opacity="0.14"/><circle cx="541" cy="202" r="2.6" fill="url(#gAccent)" opacity="0.11"/><circle cx="364" cy="146" r="4.5" fill="url(#gAccent)" opacity="0.07"/><circle cx="170" cy="160" r="5.9" fill="url(#gAccent)" opacity="0.17"/><circle cx="229" cy="261" r="2.2" fill="url(#gAccent)" opacity="0.12"/><circle cx="738" cy="745" r="5.2" fill="url(#gAccent)" opacity="0.18"/><circle cx="583" cy="370" r="4.8" fill="url(#gAccent)" opacity="0.05"/><circle cx="242" cy="339" r="3.8" fill="url(#gAccent)" opacity="0.10"/><circle cx="26" cy="44" r="4.2" fill="url(#gAccent)" opacity="0.07"/><circle cx="284" cy="31" r="2.4" fill="url(#gAccent)" opacity="0.13"/><circle cx="465" cy="172" r="6.3" fill="url(#gAccent)" opacity="0.15"/></g>
  <circle cx="400" cy="400" r="250" fill="url(#halo)"/>
  <ellipse cx="400" cy="610" rx="200" ry="34" fill="#000" opacity=".45" filter="url(#soft)"/>

  <g opacity="0.32" transform="rotate(48 400 400)">
    <circle cx="400" cy="400" r="248" fill="none" stroke="#f07ab0" stroke-width="1.6" stroke-dasharray="2 14"/>
    <circle cx="400" cy="400" r="212" fill="none" stroke="#f07ab0" stroke-width="1" opacity=".7"/>
    <circle cx="400" cy="400" r="284" fill="none" stroke="#f07ab0" stroke-width="1" stroke-dasharray="60 26" opacity=".45"/>
  </g>

  <g filter="url(#glow)" transform="translate(400 400) rotate(-8) scale(5) translate(-50 -50)">
    
    <path d="M24 28 h44 v40 a12 12 0 0 1 -12 12 h-20 a12 12 0 0 1 -12 -12 z" fill="url(#gMetal)" stroke="rgba(10,6,20,.55)" stroke-width="2" stroke-linejoin="round" stroke-linecap="round"/>
    <path d="M68 38 a13 13 0 0 1 0 26" fill="none" stroke="url(#gMetal)" stroke-width="6"/>
    <ellipse cx="46" cy="28" rx="22" ry="6" fill="#f4f0ff" opacity=".25"/>
    <circle cx="46" cy="50" r="12" fill="url(#gAccent)" opacity=".95"/>
    <path d="M30 34 v34" stroke="#f4f0ff" stroke-opacity=".25" stroke-width="3"/>
  </g>

  <rect width="800" height="800" fill="url(#vig)"/>
</svg>
