<svg xmlns="http://www.w3.org/2000/svg" viewBox="0 0 800 800" width="800" height="800" role="img" aria-label="რიუკის ფიგურა">
  <defs>
    <radialGradient id="bg" cx="50%" cy="42%" r="72%">
      <stop offset="0%" stop-color="#2e1919"/>
      <stop offset="45%" stop-color="#1c0f0f"/>
      <stop offset="100%" stop-color="#07040e"/>
    </radialGradient>
    <radialGradient id="halo" cx="50%" cy="50%" r="50%">
      <stop offset="0%" stop-color="#d33a3a" stop-opacity=".55"/>
      <stop offset="55%" stop-color="#d33a3a" stop-opacity=".14"/>
      <stop offset="100%" stop-color="#d33a3a" stop-opacity="0"/>
    </radialGradient>
    <linearGradient id="gMetal" x1="0" y1="0" x2="0.5" y2="1">
      <stop offset="0%" stop-color="#eef0ff"/>
      <stop offset="40%" stop-color="#b9bede"/>
      <stop offset="100%" stop-color="#6b6f95"/>
    </linearGradient>
    <linearGradient id="gAccent" x1="0" y1="0" x2="0.4" y2="1">
      <stop offset="0%" stop-color="#ff5151"/>
      <stop offset="55%" stop-color="#d33a3a"/>
      <stop offset="100%" stop-color="#6a1d1d"/>
    </linearGradient>
    <linearGradient id="vig" x1="0" y1="0" x2="0" y2="1">
      <stop offset="0%" stop-color="#000" stop-opacity=".45"/>
      <stop offset="40%" stop-color="#000" stop-opacity="0"/>
      <stop offset="100%" stop-color="#000" stop-opacity=".6"/>
    </linearGradient>
    <filter id="soft" x="-40%" y="-40%" width="180%" height="180%">
      <feGaussianBlur stdDeviation="16"/>
    </filter>
    <filter id="glow" x="-35%" y="-35%" width="170%" height="170%">
      <feDropShadow dx="0" dy="10" stdDeviation="14" flood-color="#000" flood-opacity=".55"/>
      <feDropShadow dx="0" dy="0" stdDeviation="9" flood-color="#d33a3a" flood-opacity=".55"/>
    </filter>
  </defs>

  <rect width="800" height="800" fill="url(#bg)"/>
  <g><circle cx="129" cy="578" r="0.93" fill="#fff" opacity="0.17"/><circle cx="655" cy="513" r="0.74" fill="#fff" opacity="0.57"/><circle cx="732" cy="173" r="1.15" fill="#fff" opacity="0.48"/><circle cx="681" cy="550" r="1.46" fill="#fff" opacity="0.55"/><circle cx="337" cy="540" r="1.58" fill="#fff" opacity="0.47"/><circle cx="571" cy="617" r="1.01" fill="#fff" opacity="0.29"/><circle cx="76" cy="690" r="0.93" fill="#fff" opacity="0.34"/><circle cx="313" cy="312" r="1.81" fill="#fff" opacity="0.24"/><circle cx="520" cy="641" r="1.28" fill="#fff" opacity="0.65"/><circle cx="13" cy="588" r="1.14" fill="#fff" opacity="0.51"/><circle cx="57" cy="292" r="1.33" fill="#fff" opacity="0.17"/><circle cx="312" cy="416" r="1.78" fill="#fff" opacity="0.48"/><circle cx="750" cy="675" r="1.83" fill="#fff" opacity="0.67"/><circle cx="402" cy="487" r="1.34" fill="#fff" opacity="0.29"/><circle cx="267" cy="110" r="2.15" fill="#fff" opacity="0.38"/><circle cx="548" cy="7" r="0.74" fill="#fff" opacity="0.27"/><circle cx="263" cy="283" r="2.03" fill="#fff" opacity="0.59"/><circle cx="195" cy="634" r="0.89" fill="#fff" opacity="0.35"/><circle cx="761" cy="587" r="2.11" fill="#fff" opacity="0.32"/><circle cx="289" cy="174" r="1.54" fill="#fff" opacity="0.35"/><circle cx="348" cy="65" r="1.55" fill="#fff" opacity="0.18"/><circle cx="706" cy="419" r="1.45" fill="#fff" opacity="0.32"/><circle cx="55" cy="118" r="2.10" fill="#fff" opacity="0.64"/><circle cx="31" cy="682" r="2.13" fill="#fff" opacity="0.16"/><circle cx="494" cy="307" r="1.11" fill="#fff" opacity="0.67"/><circle cx="749" cy="32" r="1.64" fill="#fff" opacity="0.29"/><circle cx="578" cy="520" r="1.41" fill="#fff" opacity="0.64"/><circle cx="289" cy="763" r="1.18" fill="#fff" opacity="0.32"/><circle cx="506" cy="500" r="1.63" fill="#fff" opacity="0.64"/><circle cx="233" cy="494" r="0.82" fill="#fff" opacity="0.31"/><circle cx="677" cy="727" r="0.77" fill="#fff" opacity="0.20"/><circle cx="776" cy="393" r="1.58" fill="#fff" opacity="0.42"/><circle cx="573" cy="48" r="0.82" fill="#fff" opacity="0.30"/><circle cx="611" cy="302" r="0.63" fill="#fff" opacity="0.20"/><circle cx="651" cy="724" r="0.83" fill="#fff" opacity="0.44"/><circle cx="685" cy="324" r="1.48" fill="#fff" opacity="0.38"/><circle cx="185" cy="65" r="2.00" fill="#fff" opacity="0.37"/><circle cx="641" cy="643" r="0.78" fill="#fff" opacity="0.23"/><circle cx="134" cy="643" r="2.19" fill="#fff" opacity="0.28"/><circle cx="433" cy="174" r="2.01" fill="#fff" opacity="0.31"/><circle cx="178" cy="620" r="1.47" fill="#fff" opacity="0.50"/><circle cx="169" cy="434" r="1.77" fill="#fff" opacity="0.19"/><circle cx="476" cy="673" r="0.95" fill="#fff" opacity="0.42"/><circle cx="553" cy="390" r="1.93" fill="#fff" opacity="0.28"/><circle cx="67" cy="130" r="1.84" fill="#fff" opacity="0.63"/><circle cx="131" cy="268" r="0.74" fill="#fff" opacity="0.24"/><circle cx="545" cy="573" r="0.59" fill="#fff" opacity="0.57"/><circle cx="97" cy="169" r="0.94" fill="#fff" opacity="0.35"/><circle cx="417" cy="668" r="2.08" fill="#fff" opacity="0.48"/><circle cx="790" cy="517" r="1.73" fill="#fff" opacity="0.64"/><circle cx="365" cy="257" r="1.75" fill="#fff" opacity="0.32"/><circle cx="333" cy="165" r="1.49" fill="#fff" opacity="0.52"/><circle cx="497" cy="45" r="0.42" fill="#fff" opacity="0.50"/><circle cx="486" cy="57" r="2.17" fill="#fff" opacity="0.50"/><circle cx="777" cy="495" r="0.85" fill="#fff" opacity="0.66"/><circle cx="255" cy="695" r="1.02" fill="#fff" opacity="0.32"/><circle cx="193" cy="473" r="0.47" fill="#fff" opacity="0.33"/><circle cx="67" cy="94" r="0.90" fill="#fff" opacity="0.63"/><circle cx="347" cy="709" r="2.06" fill="#fff" opacity="0.41"/><circle cx="463" cy="228" r="1.56" fill="#fff" opacity="0.57"/><circle cx="524" cy="171" r="1.09" fill="#fff" opacity="0.26"/><circle cx="739" cy="377" r="0.75" fill="#fff" opacity="0.62"/><circle cx="794" cy="348" r="1.61" fill="#fff" opacity="0.22"/><circle cx="65" cy="246" r="0.89" fill="#fff" opacity="0.68"/><circle cx="242" cy="38" r="1.59" fill="#fff" opacity="0.52"/><circle cx="246" cy="359" r="0.72" fill="#fff" opacity="0.18"/><circle cx="552" cy="319" r="1.70" fill="#fff" opacity="0.58"/><circle cx="41" cy="4" r="0.46" fill="#fff" opacity="0.44"/><circle cx="412" cy="548" r="0.57" fill="#fff" opacity="0.39"/><circle cx="99" cy="56" r="1.75" fill="#fff" opacity="0.31"/><circle cx="673" cy="42" r="0.57" fill="#fff" opacity="0.33"/><circle cx="618" cy="794" r="1.31" fill="#fff" opacity="0.53"/><circle cx="77" cy="207" r="0.86" fill="#fff" opacity="0.32"/><circle cx="765" cy="8" r="0.44" fill="#fff" opacity="0.17"/><circle cx="112" cy="380" r="1.90" fill="#fff" opacity="0.18"/><circle cx="477" cy="621" r="0.70" fill="#fff" opacity="0.51"/><circle cx="608" cy="214" r="1.04" fill="#fff" opacity="0.63"/><circle cx="60" cy="528" r="2.16" fill="#fff" opacity="0.34"/><circle cx="410" cy="394" r="1.19" fill="#fff" opacity="0.50"/><circle cx="157" cy="437" r="1.45" fill="#fff" opacity="0.39"/><circle cx="330" cy="698" r="1.26" fill="#fff" opacity="0.46"/><circle cx="581" cy="137" r="1.22" fill="#fff" opacity="0.36"/><circle cx="569" cy="753" r="0.73" fill="#fff" opacity="0.27"/><circle cx="608" cy="150" r="0.74" fill="#fff" opacity="0.64"/><circle cx="460" cy="680" r="1.65" fill="#fff" opacity="0.54"/><circle cx="784" cy="301" r="1.54" fill="#fff" opacity="0.61"/><circle cx="65" cy="691" r="0.43" fill="#fff" opacity="0.46"/><circle cx="318" cy="50" r="1.42" fill="#fff" opacity="0.48"/><circle cx="548" cy="692" r="0.41" fill="#fff" opacity="0.30"/><circle cx="593" cy="35" r="0.76" fill="#fff" opacity="0.23"/></g>
  <g><circle cx="170" cy="494" r="3.6" fill="url(#gAccent)" opacity="0.05"/><circle cx="427" cy="685" r="3.2" fill="url(#gAccent)" opacity="0.09"/><circle cx="180" cy="426" r="3.9" fill="url(#gAccent)" opacity="0.12"/><circle cx="677" cy="299" r="4.3" fill="url(#gAccent)" opacity="0.05"/><circle cx="521" cy="98" r="4.8" fill="url(#gAccent)" opacity="0.08"/><circle cx="779" cy="141" r="6.6" fill="url(#gAccent)" opacity="0.15"/><circle cx="378" cy="93" r="6.3" fill="url(#gAccent)" opacity="0.14"/><circle cx="547" cy="685" r="6.5" fill="url(#gAccent)" opacity="0.09"/><circle cx="150" cy="131" r="3.0" fill="url(#gAccent)" opacity="0.16"/><circle cx="496" cy="174" r="3.4" fill="url(#gAccent)" opacity="0.05"/><circle cx="575" cy="110" r="6.0" fill="url(#gAccent)" opacity="0.14"/><circle cx="133" cy="760" r="5.4" fill="url(#gAccent)" opacity="0.09"/><circle cx="550" cy="2" r="4.0" fill="url(#gAccent)" opacity="0.11"/><circle cx="720" cy="95" r="4.1" fill="url(#gAccent)" opacity="0.15"/></g>
  <circle cx="400" cy="380" r="250" fill="url(#halo)"/>
  <ellipse cx="400" cy="590" rx="200" ry="34" fill="#000" opacity=".45" filter="url(#soft)"/>

  <g opacity="0.32" transform="rotate(72 400 380)">
    <circle cx="400" cy="380" r="248" fill="none" stroke="#d33a3a" stroke-width="1.6" stroke-dasharray="2 14"/>
    <circle cx="400" cy="380" r="212" fill="none" stroke="#d33a3a" stroke-width="1" opacity=".7"/>
    <circle cx="400" cy="380" r="284" fill="none" stroke="#d33a3a" stroke-width="1" stroke-dasharray="60 26" opacity=".45"/>
  </g>

  <g filter="url(#glow)" transform="translate(400 380) rotate(7) scale(4.4) translate(-50 -50)">
    
    <ellipse cx="50" cy="88" rx="24" ry="6" fill="#100a1c" opacity=".7"/>
    <path d="M50 14 c-9 0 -14 7 -13 14 l3 12 l-10 6 l-4 26 l8 2 l4 -14 l2 24 h20 l2 -24 l4 14 l8 -2 l-4 -26 l-10 -6 l3 -12 c1 -7 -4 -14 -13 -14 z" fill="url(#gMetal)" stroke="rgba(10,6,20,.55)" stroke-width="1.8" stroke-linejoin="round" stroke-linecap="round"/>
    <circle cx="45" cy="24" r="2.4" fill="url(#gAccent)"/><circle cx="55" cy="24" r="2.4" fill="url(#gAccent)"/>
    <path d="M42 34 q8 6 16 0" stroke="url(#gAccent)" stroke-width="2" fill="none"/>
  </g>

  <rect width="800" height="800" fill="url(#vig)"/>
</svg>
