<svg xmlns="http://www.w3.org/2000/svg" viewBox="0 0 800 800" width="800" height="800" role="img" aria-label="ემა ბლუმის ტყვიის ჩექმები">
  <defs>
    <radialGradient id="bg" cx="50%" cy="42%" r="72%">
      <stop offset="0%" stop-color="#333f2e"/>
      <stop offset="45%" stop-color="#1f261c"/>
      <stop offset="100%" stop-color="#07040e"/>
    </radialGradient>
    <radialGradient id="halo" cx="50%" cy="50%" r="50%">
      <stop offset="0%" stop-color="#8fa17a" stop-opacity=".55"/>
      <stop offset="55%" stop-color="#8fa17a" stop-opacity=".14"/>
      <stop offset="100%" stop-color="#8fa17a" stop-opacity="0"/>
    </radialGradient>
    <linearGradient id="gMetal" x1="0" y1="0" x2="0.5" y2="1">
      <stop offset="0%" stop-color="#eef0ff"/>
      <stop offset="40%" stop-color="#b9bede"/>
      <stop offset="100%" stop-color="#6b6f95"/>
    </linearGradient>
    <linearGradient id="gAccent" x1="0" y1="0" x2="0.4" y2="1">
      <stop offset="0%" stop-color="#c8e1ab"/>
      <stop offset="55%" stop-color="#8fa17a"/>
      <stop offset="100%" stop-color="#48513d"/>
    </linearGradient>
    <linearGradient id="vig" x1="0" y1="0" x2="0" y2="1">
      <stop offset="0%" stop-color="#000" stop-opacity=".45"/>
      <stop offset="40%" stop-color="#000" stop-opacity="0"/>
      <stop offset="100%" stop-color="#000" stop-opacity=".6"/>
    </linearGradient>
    <filter id="soft" x="-40%" y="-40%" width="180%" height="180%">
      <feGaussianBlur stdDeviation="16"/>
    </filter>
    <filter id="glow" x="-35%" y="-35%" width="170%" height="170%">
      <feDropShadow dx="0" dy="10" stdDeviation="14" flood-color="#000" flood-opacity=".55"/>
      <feDropShadow dx="0" dy="0" stdDeviation="9" flood-color="#8fa17a" flood-opacity=".55"/>
    </filter>
  </defs>

  <rect width="800" height="800" fill="url(#bg)"/>
  <g><circle cx="190" cy="543" r="1.28" fill="#fff" opacity="0.63"/><circle cx="652" cy="294" r="1.53" fill="#fff" opacity="0.22"/><circle cx="224" cy="364" r="0.43" fill="#fff" opacity="0.26"/><circle cx="0" cy="458" r="1.61" fill="#fff" opacity="0.31"/><circle cx="519" cy="449" r="1.76" fill="#fff" opacity="0.24"/><circle cx="209" cy="412" r="1.12" fill="#fff" opacity="0.15"/><circle cx="375" cy="297" r="0.42" fill="#fff" opacity="0.27"/><circle cx="490" cy="143" r="0.41" fill="#fff" opacity="0.35"/><circle cx="566" cy="52" r="0.62" fill="#fff" opacity="0.36"/><circle cx="535" cy="517" r="1.57" fill="#fff" opacity="0.17"/><circle cx="182" cy="264" r="1.49" fill="#fff" opacity="0.59"/><circle cx="70" cy="437" r="1.64" fill="#fff" opacity="0.29"/><circle cx="76" cy="776" r="1.79" fill="#fff" opacity="0.15"/><circle cx="235" cy="301" r="2.12" fill="#fff" opacity="0.39"/><circle cx="165" cy="199" r="2.14" fill="#fff" opacity="0.26"/><circle cx="52" cy="121" r="1.07" fill="#fff" opacity="0.23"/><circle cx="388" cy="272" r="1.34" fill="#fff" opacity="0.29"/><circle cx="210" cy="679" r="1.07" fill="#fff" opacity="0.61"/><circle cx="67" cy="634" r="1.65" fill="#fff" opacity="0.52"/><circle cx="506" cy="63" r="1.56" fill="#fff" opacity="0.70"/><circle cx="175" cy="580" r="1.01" fill="#fff" opacity="0.15"/><circle cx="445" cy="146" r="1.87" fill="#fff" opacity="0.20"/><circle cx="20" cy="644" r="2.12" fill="#fff" opacity="0.65"/><circle cx="102" cy="100" r="1.27" fill="#fff" opacity="0.26"/><circle cx="557" cy="611" r="1.09" fill="#fff" opacity="0.31"/><circle cx="183" cy="759" r="1.99" fill="#fff" opacity="0.51"/><circle cx="691" cy="788" r="0.43" fill="#fff" opacity="0.20"/><circle cx="572" cy="119" r="2.08" fill="#fff" opacity="0.30"/><circle cx="15" cy="16" r="0.43" fill="#fff" opacity="0.40"/><circle cx="331" cy="747" r="1.56" fill="#fff" opacity="0.18"/><circle cx="214" cy="316" r="2.15" fill="#fff" opacity="0.17"/><circle cx="662" cy="440" r="0.47" fill="#fff" opacity="0.15"/><circle cx="241" cy="499" r="0.86" fill="#fff" opacity="0.68"/><circle cx="575" cy="458" r="0.92" fill="#fff" opacity="0.30"/><circle cx="215" cy="705" r="1.43" fill="#fff" opacity="0.56"/><circle cx="323" cy="134" r="1.82" fill="#fff" opacity="0.38"/><circle cx="657" cy="555" r="0.85" fill="#fff" opacity="0.54"/><circle cx="653" cy="372" r="1.15" fill="#fff" opacity="0.20"/><circle cx="217" cy="433" r="1.06" fill="#fff" opacity="0.48"/><circle cx="241" cy="73" r="0.46" fill="#fff" opacity="0.26"/><circle cx="394" cy="249" r="0.82" fill="#fff" opacity="0.30"/><circle cx="794" cy="641" r="2.04" fill="#fff" opacity="0.66"/><circle cx="55" cy="264" r="0.89" fill="#fff" opacity="0.56"/><circle cx="732" cy="517" r="1.64" fill="#fff" opacity="0.28"/><circle cx="480" cy="381" r="1.75" fill="#fff" opacity="0.57"/><circle cx="6" cy="261" r="0.98" fill="#fff" opacity="0.34"/><circle cx="666" cy="340" r="0.65" fill="#fff" opacity="0.52"/><circle cx="171" cy="642" r="0.50" fill="#fff" opacity="0.62"/><circle cx="574" cy="302" r="0.80" fill="#fff" opacity="0.58"/><circle cx="668" cy="792" r="1.71" fill="#fff" opacity="0.44"/><circle cx="625" cy="635" r="1.84" fill="#fff" opacity="0.52"/><circle cx="718" cy="636" r="2.17" fill="#fff" opacity="0.46"/><circle cx="630" cy="492" r="1.78" fill="#fff" opacity="0.52"/><circle cx="350" cy="228" r="0.46" fill="#fff" opacity="0.65"/><circle cx="382" cy="746" r="0.75" fill="#fff" opacity="0.68"/><circle cx="636" cy="326" r="0.42" fill="#fff" opacity="0.39"/><circle cx="258" cy="605" r="0.91" fill="#fff" opacity="0.36"/><circle cx="199" cy="231" r="1.83" fill="#fff" opacity="0.18"/><circle cx="502" cy="126" r="1.74" fill="#fff" opacity="0.67"/><circle cx="373" cy="396" r="0.54" fill="#fff" opacity="0.19"/><circle cx="725" cy="585" r="0.81" fill="#fff" opacity="0.54"/><circle cx="692" cy="338" r="0.51" fill="#fff" opacity="0.42"/><circle cx="170" cy="171" r="0.74" fill="#fff" opacity="0.65"/><circle cx="778" cy="52" r="0.81" fill="#fff" opacity="0.49"/><circle cx="77" cy="156" r="1.60" fill="#fff" opacity="0.20"/><circle cx="791" cy="689" r="0.74" fill="#fff" opacity="0.53"/><circle cx="543" cy="369" r="0.73" fill="#fff" opacity="0.16"/><circle cx="361" cy="658" r="0.61" fill="#fff" opacity="0.67"/><circle cx="707" cy="129" r="0.86" fill="#fff" opacity="0.48"/><circle cx="515" cy="38" r="1.45" fill="#fff" opacity="0.36"/><circle cx="197" cy="737" r="1.17" fill="#fff" opacity="0.26"/><circle cx="211" cy="46" r="1.78" fill="#fff" opacity="0.58"/><circle cx="733" cy="151" r="1.76" fill="#fff" opacity="0.30"/><circle cx="635" cy="624" r="1.70" fill="#fff" opacity="0.55"/><circle cx="748" cy="755" r="0.46" fill="#fff" opacity="0.52"/><circle cx="602" cy="456" r="1.65" fill="#fff" opacity="0.56"/><circle cx="188" cy="665" r="2.02" fill="#fff" opacity="0.69"/><circle cx="129" cy="735" r="0.98" fill="#fff" opacity="0.41"/><circle cx="425" cy="257" r="0.70" fill="#fff" opacity="0.45"/><circle cx="229" cy="690" r="0.75" fill="#fff" opacity="0.37"/><circle cx="90" cy="192" r="1.93" fill="#fff" opacity="0.57"/><circle cx="347" cy="78" r="1.13" fill="#fff" opacity="0.51"/><circle cx="230" cy="571" r="2.06" fill="#fff" opacity="0.65"/><circle cx="562" cy="126" r="1.46" fill="#fff" opacity="0.57"/><circle cx="135" cy="719" r="0.92" fill="#fff" opacity="0.29"/><circle cx="386" cy="100" r="1.52" fill="#fff" opacity="0.45"/><circle cx="289" cy="215" r="2.04" fill="#fff" opacity="0.59"/><circle cx="761" cy="765" r="1.07" fill="#fff" opacity="0.54"/><circle cx="697" cy="656" r="0.46" fill="#fff" opacity="0.66"/><circle cx="750" cy="248" r="0.99" fill="#fff" opacity="0.51"/></g>
  <g><circle cx="7" cy="577" r="7.0" fill="url(#gAccent)" opacity="0.16"/><circle cx="332" cy="520" r="6.1" fill="url(#gAccent)" opacity="0.15"/><circle cx="432" cy="529" r="5.4" fill="url(#gAccent)" opacity="0.10"/><circle cx="346" cy="71" r="2.5" fill="url(#gAccent)" opacity="0.11"/><circle cx="372" cy="554" r="3.2" fill="url(#gAccent)" opacity="0.07"/><circle cx="35" cy="152" r="3.2" fill="url(#gAccent)" opacity="0.06"/><circle cx="27" cy="572" r="3.7" fill="url(#gAccent)" opacity="0.15"/><circle cx="17" cy="217" r="6.4" fill="url(#gAccent)" opacity="0.08"/><circle cx="232" cy="48" r="4.5" fill="url(#gAccent)" opacity="0.07"/><circle cx="278" cy="286" r="2.6" fill="url(#gAccent)" opacity="0.09"/><circle cx="747" cy="516" r="4.9" fill="url(#gAccent)" opacity="0.07"/><circle cx="493" cy="292" r="4.5" fill="url(#gAccent)" opacity="0.10"/><circle cx="444" cy="472" r="3.8" fill="url(#gAccent)" opacity="0.04"/><circle cx="770" cy="759" r="6.2" fill="url(#gAccent)" opacity="0.11"/></g>
  <circle cx="400" cy="380" r="250" fill="url(#halo)"/>
  <ellipse cx="400" cy="590" rx="200" ry="34" fill="#000" opacity=".45" filter="url(#soft)"/>

  <g opacity="0.32" transform="rotate(72 400 380)">
    <circle cx="400" cy="380" r="248" fill="none" stroke="#8fa17a" stroke-width="1.6" stroke-dasharray="2 14"/>
    <circle cx="400" cy="380" r="212" fill="none" stroke="#8fa17a" stroke-width="1" opacity=".7"/>
    <circle cx="400" cy="380" r="284" fill="none" stroke="#8fa17a" stroke-width="1" stroke-dasharray="60 26" opacity=".45"/>
  </g>

  <g filter="url(#glow)" transform="translate(400 380) rotate(7) scale(4.4) translate(-50 -50)">
    
    <path d="M30 14 h18 v42 l14 12 v14 h-36 v-14 z" fill="url(#gMetal)" stroke="rgba(10,6,20,.55)" stroke-width="2" stroke-linejoin="round" stroke-linecap="round"/>
    <path d="M26 76 h40 a4 4 0 0 1 4 4 v6 h-48 v-6 a4 4 0 0 1 4 -4 z" fill="#100a1c"/>
    <path d="M33 22 h12 M33 30 h12 M33 38 h12 M33 46 h12" stroke="url(#gAccent)" stroke-width="2.4" stroke-linecap="round"/>
    <circle cx="31" cy="22" r="1.6" fill="url(#gAccent)"/><circle cx="47" cy="22" r="1.6" fill="url(#gAccent)"/>
    <path d="M62 68 l8 4" stroke="url(#gAccent)" stroke-width="2.4"/>
  </g>

  <rect width="800" height="800" fill="url(#vig)"/>
</svg>
