<svg xmlns="http://www.w3.org/2000/svg" viewBox="0 0 800 800" width="800" height="800" role="img" aria-label="ჰოგვორტსის შარფი">
  <defs>
    <radialGradient id="bg" cx="50%" cy="42%" r="72%">
      <stop offset="0%" stop-color="#ea5648"/>
      <stop offset="45%" stop-color="#8d342c"/>
      <stop offset="100%" stop-color="#07040e"/>
    </radialGradient>
    <radialGradient id="halo" cx="50%" cy="50%" r="50%">
      <stop offset="0%" stop-color="#c9a227" stop-opacity=".55"/>
      <stop offset="55%" stop-color="#c9a227" stop-opacity=".14"/>
      <stop offset="100%" stop-color="#c9a227" stop-opacity="0"/>
    </radialGradient>
    <linearGradient id="gMetal" x1="0" y1="0" x2="0.5" y2="1">
      <stop offset="0%" stop-color="#eef0ff"/>
      <stop offset="40%" stop-color="#b9bede"/>
      <stop offset="100%" stop-color="#6b6f95"/>
    </linearGradient>
    <linearGradient id="gAccent" x1="0" y1="0" x2="0.4" y2="1">
      <stop offset="0%" stop-color="#ffe337"/>
      <stop offset="55%" stop-color="#c9a227"/>
      <stop offset="100%" stop-color="#655114"/>
    </linearGradient>
    <linearGradient id="vig" x1="0" y1="0" x2="0" y2="1">
      <stop offset="0%" stop-color="#000" stop-opacity=".45"/>
      <stop offset="40%" stop-color="#000" stop-opacity="0"/>
      <stop offset="100%" stop-color="#000" stop-opacity=".6"/>
    </linearGradient>
    <filter id="soft" x="-40%" y="-40%" width="180%" height="180%">
      <feGaussianBlur stdDeviation="16"/>
    </filter>
    <filter id="glow" x="-35%" y="-35%" width="170%" height="170%">
      <feDropShadow dx="0" dy="10" stdDeviation="14" flood-color="#000" flood-opacity=".55"/>
      <feDropShadow dx="0" dy="0" stdDeviation="9" flood-color="#c9a227" flood-opacity=".55"/>
    </filter>
  </defs>

  <rect width="800" height="800" fill="url(#bg)"/>
  <g><circle cx="659" cy="78" r="0.51" fill="#fff" opacity="0.70"/><circle cx="162" cy="795" r="0.66" fill="#fff" opacity="0.65"/><circle cx="293" cy="61" r="0.62" fill="#fff" opacity="0.15"/><circle cx="340" cy="320" r="0.62" fill="#fff" opacity="0.32"/><circle cx="434" cy="556" r="2.18" fill="#fff" opacity="0.41"/><circle cx="384" cy="781" r="1.82" fill="#fff" opacity="0.40"/><circle cx="321" cy="144" r="0.59" fill="#fff" opacity="0.62"/><circle cx="347" cy="122" r="0.82" fill="#fff" opacity="0.19"/><circle cx="280" cy="481" r="0.69" fill="#fff" opacity="0.25"/><circle cx="613" cy="540" r="1.91" fill="#fff" opacity="0.21"/><circle cx="128" cy="545" r="0.53" fill="#fff" opacity="0.51"/><circle cx="17" cy="219" r="1.62" fill="#fff" opacity="0.65"/><circle cx="499" cy="527" r="1.76" fill="#fff" opacity="0.23"/><circle cx="234" cy="676" r="1.50" fill="#fff" opacity="0.27"/><circle cx="122" cy="182" r="1.01" fill="#fff" opacity="0.31"/><circle cx="381" cy="790" r="1.34" fill="#fff" opacity="0.63"/><circle cx="613" cy="182" r="1.57" fill="#fff" opacity="0.49"/><circle cx="117" cy="103" r="0.92" fill="#fff" opacity="0.37"/><circle cx="490" cy="0" r="0.81" fill="#fff" opacity="0.66"/><circle cx="474" cy="498" r="1.65" fill="#fff" opacity="0.43"/><circle cx="609" cy="54" r="1.95" fill="#fff" opacity="0.48"/><circle cx="249" cy="376" r="1.29" fill="#fff" opacity="0.21"/><circle cx="735" cy="145" r="1.58" fill="#fff" opacity="0.33"/><circle cx="735" cy="88" r="2.01" fill="#fff" opacity="0.45"/><circle cx="112" cy="153" r="2.06" fill="#fff" opacity="0.51"/><circle cx="184" cy="186" r="1.41" fill="#fff" opacity="0.60"/><circle cx="201" cy="54" r="1.16" fill="#fff" opacity="0.32"/><circle cx="314" cy="619" r="1.82" fill="#fff" opacity="0.46"/><circle cx="321" cy="437" r="1.76" fill="#fff" opacity="0.17"/><circle cx="573" cy="10" r="1.96" fill="#fff" opacity="0.64"/><circle cx="56" cy="391" r="1.77" fill="#fff" opacity="0.18"/><circle cx="284" cy="215" r="1.25" fill="#fff" opacity="0.39"/><circle cx="664" cy="329" r="0.51" fill="#fff" opacity="0.28"/><circle cx="54" cy="464" r="1.75" fill="#fff" opacity="0.31"/><circle cx="182" cy="222" r="2.19" fill="#fff" opacity="0.52"/><circle cx="494" cy="632" r="1.52" fill="#fff" opacity="0.60"/><circle cx="590" cy="760" r="1.37" fill="#fff" opacity="0.69"/><circle cx="554" cy="410" r="1.44" fill="#fff" opacity="0.21"/><circle cx="237" cy="693" r="1.80" fill="#fff" opacity="0.56"/><circle cx="533" cy="405" r="2.18" fill="#fff" opacity="0.49"/><circle cx="629" cy="430" r="0.58" fill="#fff" opacity="0.35"/><circle cx="666" cy="62" r="1.61" fill="#fff" opacity="0.36"/><circle cx="183" cy="787" r="1.33" fill="#fff" opacity="0.47"/><circle cx="428" cy="463" r="1.14" fill="#fff" opacity="0.58"/><circle cx="392" cy="410" r="0.73" fill="#fff" opacity="0.17"/><circle cx="59" cy="770" r="1.03" fill="#fff" opacity="0.66"/><circle cx="385" cy="54" r="1.61" fill="#fff" opacity="0.54"/><circle cx="63" cy="245" r="1.77" fill="#fff" opacity="0.18"/><circle cx="629" cy="537" r="0.67" fill="#fff" opacity="0.56"/><circle cx="61" cy="477" r="1.05" fill="#fff" opacity="0.19"/><circle cx="236" cy="150" r="0.86" fill="#fff" opacity="0.61"/><circle cx="114" cy="641" r="1.86" fill="#fff" opacity="0.36"/><circle cx="693" cy="779" r="1.22" fill="#fff" opacity="0.37"/><circle cx="597" cy="502" r="0.45" fill="#fff" opacity="0.31"/><circle cx="67" cy="269" r="1.52" fill="#fff" opacity="0.40"/><circle cx="693" cy="214" r="1.17" fill="#fff" opacity="0.27"/><circle cx="702" cy="72" r="1.51" fill="#fff" opacity="0.30"/><circle cx="590" cy="273" r="1.80" fill="#fff" opacity="0.61"/><circle cx="548" cy="100" r="2.20" fill="#fff" opacity="0.41"/><circle cx="711" cy="260" r="1.47" fill="#fff" opacity="0.30"/><circle cx="520" cy="751" r="0.76" fill="#fff" opacity="0.24"/><circle cx="182" cy="716" r="1.51" fill="#fff" opacity="0.24"/><circle cx="550" cy="257" r="1.91" fill="#fff" opacity="0.56"/><circle cx="548" cy="67" r="1.66" fill="#fff" opacity="0.19"/><circle cx="640" cy="8" r="1.79" fill="#fff" opacity="0.39"/><circle cx="377" cy="158" r="1.25" fill="#fff" opacity="0.56"/><circle cx="218" cy="23" r="1.55" fill="#fff" opacity="0.66"/><circle cx="402" cy="143" r="0.86" fill="#fff" opacity="0.20"/><circle cx="383" cy="666" r="0.47" fill="#fff" opacity="0.61"/><circle cx="417" cy="436" r="2.07" fill="#fff" opacity="0.65"/><circle cx="6" cy="614" r="0.77" fill="#fff" opacity="0.39"/><circle cx="335" cy="413" r="0.83" fill="#fff" opacity="0.64"/><circle cx="265" cy="91" r="1.79" fill="#fff" opacity="0.15"/><circle cx="163" cy="665" r="0.72" fill="#fff" opacity="0.31"/><circle cx="453" cy="684" r="1.46" fill="#fff" opacity="0.54"/><circle cx="300" cy="184" r="0.51" fill="#fff" opacity="0.51"/><circle cx="418" cy="203" r="1.24" fill="#fff" opacity="0.42"/><circle cx="729" cy="145" r="1.83" fill="#fff" opacity="0.32"/><circle cx="520" cy="678" r="1.79" fill="#fff" opacity="0.54"/><circle cx="762" cy="169" r="0.50" fill="#fff" opacity="0.67"/><circle cx="160" cy="346" r="1.59" fill="#fff" opacity="0.30"/><circle cx="174" cy="518" r="1.94" fill="#fff" opacity="0.61"/><circle cx="561" cy="238" r="0.49" fill="#fff" opacity="0.30"/><circle cx="387" cy="108" r="1.08" fill="#fff" opacity="0.61"/><circle cx="600" cy="58" r="1.53" fill="#fff" opacity="0.17"/><circle cx="389" cy="762" r="0.58" fill="#fff" opacity="0.45"/><circle cx="90" cy="67" r="0.54" fill="#fff" opacity="0.57"/><circle cx="529" cy="627" r="1.46" fill="#fff" opacity="0.56"/><circle cx="70" cy="84" r="1.00" fill="#fff" opacity="0.66"/><circle cx="420" cy="532" r="0.94" fill="#fff" opacity="0.56"/></g>
  <g><circle cx="577" cy="388" r="6.7" fill="url(#gAccent)" opacity="0.17"/><circle cx="534" cy="445" r="2.3" fill="url(#gAccent)" opacity="0.17"/><circle cx="77" cy="280" r="4.1" fill="url(#gAccent)" opacity="0.17"/><circle cx="594" cy="642" r="4.2" fill="url(#gAccent)" opacity="0.11"/><circle cx="330" cy="660" r="2.9" fill="url(#gAccent)" opacity="0.08"/><circle cx="725" cy="763" r="5.4" fill="url(#gAccent)" opacity="0.09"/><circle cx="394" cy="315" r="4.9" fill="url(#gAccent)" opacity="0.05"/><circle cx="736" cy="789" r="2.3" fill="url(#gAccent)" opacity="0.14"/><circle cx="736" cy="554" r="2.3" fill="url(#gAccent)" opacity="0.05"/><circle cx="150" cy="796" r="6.9" fill="url(#gAccent)" opacity="0.16"/><circle cx="571" cy="99" r="4.0" fill="url(#gAccent)" opacity="0.14"/><circle cx="24" cy="308" r="3.7" fill="url(#gAccent)" opacity="0.14"/><circle cx="208" cy="417" r="3.5" fill="url(#gAccent)" opacity="0.05"/><circle cx="480" cy="354" r="2.5" fill="url(#gAccent)" opacity="0.16"/></g>
  <circle cx="400" cy="400" r="250" fill="url(#halo)"/>
  <ellipse cx="400" cy="610" rx="200" ry="34" fill="#000" opacity=".45" filter="url(#soft)"/>

  <g opacity="0.5" transform="rotate(24 400 400)">
    <circle cx="400" cy="400" r="248" fill="none" stroke="#c9a227" stroke-width="1.6" stroke-dasharray="2 14"/>
    <circle cx="400" cy="400" r="212" fill="none" stroke="#c9a227" stroke-width="1" opacity=".7"/>
    <circle cx="400" cy="400" r="284" fill="none" stroke="#c9a227" stroke-width="1" stroke-dasharray="60 26" opacity=".45"/>
  </g>

  <g filter="url(#glow)" transform="translate(400 400) rotate(0) scale(5.4) translate(-50 -50)">
    
    <path d="M28 14 h44 v20 h-44 z" fill="url(#gAccent)" stroke="rgba(10,6,20,.55)" stroke-width="1.6" stroke-linejoin="round" stroke-linecap="round"/>
    <path d="M28 34 h44 v14 h-44 z" fill="url(#gMetal)" stroke="rgba(10,6,20,.55)" stroke-width="1.6" stroke-linejoin="round" stroke-linecap="round"/>
    <path d="M28 48 h44 v18 h-44 z" fill="url(#gAccent)" stroke="rgba(10,6,20,.55)" stroke-width="1.6" stroke-linejoin="round" stroke-linecap="round"/>
    <path d="M28 66 h44 v12 h-44 z" fill="url(#gMetal)" stroke="rgba(10,6,20,.55)" stroke-width="1.6" stroke-linejoin="round" stroke-linecap="round"/>
    <path d="M28 78 h44 v6 h-44 z" fill="#100a1c"/>
    <path d="M32 84 v8 M40 84 v8 M48 84 v8 M56 84 v8 M64 84 v8" stroke="url(#gMetal)" stroke-width="2.4"/>
  </g>

  <rect width="800" height="800" fill="url(#vig)"/>
</svg>
