<svg xmlns="http://www.w3.org/2000/svg" viewBox="0 0 800 800" width="800" height="800" role="img" aria-label="ფარის კედლის დეკორი">
  <defs>
    <radialGradient id="bg" cx="50%" cy="42%" r="72%">
      <stop offset="0%" stop-color="#371d26"/>
      <stop offset="45%" stop-color="#211117"/>
      <stop offset="100%" stop-color="#07040e"/>
    </radialGradient>
    <radialGradient id="halo" cx="50%" cy="50%" r="50%">
      <stop offset="0%" stop-color="#e23b42" stop-opacity=".55"/>
      <stop offset="55%" stop-color="#e23b42" stop-opacity=".14"/>
      <stop offset="100%" stop-color="#e23b42" stop-opacity="0"/>
    </radialGradient>
    <linearGradient id="gMetal" x1="0" y1="0" x2="0.5" y2="1">
      <stop offset="0%" stop-color="#eef0ff"/>
      <stop offset="40%" stop-color="#b9bede"/>
      <stop offset="100%" stop-color="#6b6f95"/>
    </linearGradient>
    <linearGradient id="gAccent" x1="0" y1="0" x2="0.4" y2="1">
      <stop offset="0%" stop-color="#ff535c"/>
      <stop offset="55%" stop-color="#e23b42"/>
      <stop offset="100%" stop-color="#711e21"/>
    </linearGradient>
    <linearGradient id="vig" x1="0" y1="0" x2="0" y2="1">
      <stop offset="0%" stop-color="#000" stop-opacity=".45"/>
      <stop offset="40%" stop-color="#000" stop-opacity="0"/>
      <stop offset="100%" stop-color="#000" stop-opacity=".6"/>
    </linearGradient>
    <filter id="soft" x="-40%" y="-40%" width="180%" height="180%">
      <feGaussianBlur stdDeviation="16"/>
    </filter>
    <filter id="glow" x="-35%" y="-35%" width="170%" height="170%">
      <feDropShadow dx="0" dy="10" stdDeviation="14" flood-color="#000" flood-opacity=".55"/>
      <feDropShadow dx="0" dy="0" stdDeviation="9" flood-color="#e23b42" flood-opacity=".55"/>
    </filter>
  </defs>

  <rect width="800" height="800" fill="url(#bg)"/>
  <g><circle cx="139" cy="131" r="1.67" fill="#fff" opacity="0.36"/><circle cx="190" cy="96" r="1.69" fill="#fff" opacity="0.37"/><circle cx="18" cy="466" r="1.44" fill="#fff" opacity="0.48"/><circle cx="311" cy="593" r="0.96" fill="#fff" opacity="0.15"/><circle cx="235" cy="798" r="0.62" fill="#fff" opacity="0.67"/><circle cx="688" cy="171" r="1.89" fill="#fff" opacity="0.47"/><circle cx="412" cy="322" r="0.56" fill="#fff" opacity="0.39"/><circle cx="317" cy="484" r="1.52" fill="#fff" opacity="0.26"/><circle cx="718" cy="194" r="0.63" fill="#fff" opacity="0.68"/><circle cx="83" cy="675" r="1.53" fill="#fff" opacity="0.23"/><circle cx="408" cy="176" r="0.67" fill="#fff" opacity="0.44"/><circle cx="611" cy="9" r="1.32" fill="#fff" opacity="0.55"/><circle cx="474" cy="656" r="2.11" fill="#fff" opacity="0.54"/><circle cx="77" cy="573" r="0.67" fill="#fff" opacity="0.60"/><circle cx="61" cy="702" r="2.17" fill="#fff" opacity="0.31"/><circle cx="626" cy="766" r="0.46" fill="#fff" opacity="0.21"/><circle cx="515" cy="358" r="1.64" fill="#fff" opacity="0.33"/><circle cx="135" cy="414" r="0.81" fill="#fff" opacity="0.64"/><circle cx="566" cy="453" r="0.91" fill="#fff" opacity="0.54"/><circle cx="515" cy="669" r="0.43" fill="#fff" opacity="0.49"/><circle cx="712" cy="693" r="1.69" fill="#fff" opacity="0.28"/><circle cx="54" cy="137" r="0.84" fill="#fff" opacity="0.30"/><circle cx="697" cy="756" r="2.03" fill="#fff" opacity="0.31"/><circle cx="3" cy="788" r="2.07" fill="#fff" opacity="0.32"/><circle cx="694" cy="226" r="1.51" fill="#fff" opacity="0.20"/><circle cx="8" cy="421" r="0.58" fill="#fff" opacity="0.40"/><circle cx="706" cy="689" r="1.02" fill="#fff" opacity="0.33"/><circle cx="115" cy="556" r="0.63" fill="#fff" opacity="0.28"/><circle cx="237" cy="762" r="0.94" fill="#fff" opacity="0.44"/><circle cx="731" cy="494" r="2.10" fill="#fff" opacity="0.24"/><circle cx="688" cy="101" r="0.91" fill="#fff" opacity="0.27"/><circle cx="720" cy="340" r="1.45" fill="#fff" opacity="0.41"/><circle cx="270" cy="465" r="2.20" fill="#fff" opacity="0.62"/><circle cx="344" cy="228" r="0.62" fill="#fff" opacity="0.49"/><circle cx="86" cy="727" r="1.87" fill="#fff" opacity="0.26"/><circle cx="488" cy="32" r="2.05" fill="#fff" opacity="0.18"/><circle cx="227" cy="221" r="0.83" fill="#fff" opacity="0.19"/><circle cx="50" cy="49" r="1.37" fill="#fff" opacity="0.45"/><circle cx="372" cy="311" r="2.10" fill="#fff" opacity="0.58"/><circle cx="516" cy="532" r="1.61" fill="#fff" opacity="0.26"/><circle cx="125" cy="366" r="0.49" fill="#fff" opacity="0.27"/><circle cx="104" cy="579" r="1.21" fill="#fff" opacity="0.41"/><circle cx="595" cy="158" r="1.52" fill="#fff" opacity="0.20"/><circle cx="404" cy="69" r="0.96" fill="#fff" opacity="0.26"/><circle cx="40" cy="338" r="1.91" fill="#fff" opacity="0.22"/><circle cx="335" cy="521" r="0.77" fill="#fff" opacity="0.36"/><circle cx="769" cy="182" r="1.44" fill="#fff" opacity="0.27"/><circle cx="287" cy="198" r="1.79" fill="#fff" opacity="0.45"/><circle cx="487" cy="227" r="1.79" fill="#fff" opacity="0.56"/><circle cx="465" cy="557" r="0.61" fill="#fff" opacity="0.44"/><circle cx="393" cy="195" r="1.74" fill="#fff" opacity="0.16"/><circle cx="660" cy="466" r="1.39" fill="#fff" opacity="0.54"/><circle cx="532" cy="716" r="0.72" fill="#fff" opacity="0.34"/><circle cx="570" cy="686" r="0.84" fill="#fff" opacity="0.21"/><circle cx="663" cy="450" r="0.94" fill="#fff" opacity="0.27"/><circle cx="325" cy="1" r="0.52" fill="#fff" opacity="0.55"/><circle cx="416" cy="167" r="1.08" fill="#fff" opacity="0.15"/><circle cx="714" cy="662" r="2.14" fill="#fff" opacity="0.50"/><circle cx="237" cy="515" r="1.69" fill="#fff" opacity="0.45"/><circle cx="113" cy="172" r="1.86" fill="#fff" opacity="0.67"/><circle cx="665" cy="326" r="0.70" fill="#fff" opacity="0.17"/><circle cx="258" cy="605" r="0.81" fill="#fff" opacity="0.48"/><circle cx="651" cy="579" r="1.03" fill="#fff" opacity="0.40"/><circle cx="768" cy="360" r="2.17" fill="#fff" opacity="0.29"/><circle cx="209" cy="97" r="1.60" fill="#fff" opacity="0.58"/><circle cx="732" cy="725" r="0.41" fill="#fff" opacity="0.32"/><circle cx="742" cy="231" r="2.11" fill="#fff" opacity="0.28"/><circle cx="182" cy="267" r="1.98" fill="#fff" opacity="0.34"/><circle cx="453" cy="650" r="1.90" fill="#fff" opacity="0.16"/><circle cx="192" cy="722" r="1.52" fill="#fff" opacity="0.63"/><circle cx="775" cy="654" r="1.38" fill="#fff" opacity="0.31"/><circle cx="748" cy="789" r="0.50" fill="#fff" opacity="0.43"/><circle cx="327" cy="601" r="1.46" fill="#fff" opacity="0.39"/><circle cx="208" cy="574" r="0.74" fill="#fff" opacity="0.63"/><circle cx="247" cy="332" r="1.89" fill="#fff" opacity="0.63"/><circle cx="759" cy="40" r="1.84" fill="#fff" opacity="0.51"/><circle cx="404" cy="286" r="1.60" fill="#fff" opacity="0.39"/><circle cx="737" cy="186" r="1.55" fill="#fff" opacity="0.41"/><circle cx="798" cy="363" r="0.89" fill="#fff" opacity="0.50"/><circle cx="270" cy="676" r="2.14" fill="#fff" opacity="0.26"/><circle cx="208" cy="253" r="0.46" fill="#fff" opacity="0.51"/><circle cx="53" cy="198" r="2.16" fill="#fff" opacity="0.40"/><circle cx="553" cy="672" r="0.80" fill="#fff" opacity="0.29"/><circle cx="638" cy="254" r="1.46" fill="#fff" opacity="0.31"/><circle cx="675" cy="633" r="0.71" fill="#fff" opacity="0.22"/><circle cx="660" cy="754" r="1.97" fill="#fff" opacity="0.56"/><circle cx="789" cy="141" r="1.13" fill="#fff" opacity="0.47"/><circle cx="4" cy="598" r="2.08" fill="#fff" opacity="0.20"/><circle cx="776" cy="770" r="1.35" fill="#fff" opacity="0.41"/><circle cx="529" cy="457" r="0.73" fill="#fff" opacity="0.45"/></g>
  <g><circle cx="594" cy="688" r="2.7" fill="url(#gAccent)" opacity="0.08"/><circle cx="177" cy="332" r="6.7" fill="url(#gAccent)" opacity="0.17"/><circle cx="79" cy="509" r="4.0" fill="url(#gAccent)" opacity="0.14"/><circle cx="524" cy="460" r="4.5" fill="url(#gAccent)" opacity="0.10"/><circle cx="68" cy="660" r="4.3" fill="url(#gAccent)" opacity="0.09"/><circle cx="554" cy="432" r="4.7" fill="url(#gAccent)" opacity="0.07"/><circle cx="671" cy="403" r="2.8" fill="url(#gAccent)" opacity="0.09"/><circle cx="119" cy="226" r="4.7" fill="url(#gAccent)" opacity="0.08"/><circle cx="769" cy="316" r="2.9" fill="url(#gAccent)" opacity="0.07"/><circle cx="17" cy="711" r="2.5" fill="url(#gAccent)" opacity="0.10"/><circle cx="635" cy="563" r="2.2" fill="url(#gAccent)" opacity="0.13"/><circle cx="152" cy="500" r="2.4" fill="url(#gAccent)" opacity="0.14"/><circle cx="786" cy="62" r="2.6" fill="url(#gAccent)" opacity="0.08"/><circle cx="726" cy="748" r="3.3" fill="url(#gAccent)" opacity="0.07"/></g>
  <circle cx="400" cy="380" r="250" fill="url(#halo)"/>
  <ellipse cx="400" cy="590" rx="200" ry="34" fill="#000" opacity=".45" filter="url(#soft)"/>

  <g opacity="0.32" transform="rotate(72 400 380)">
    <circle cx="400" cy="380" r="248" fill="none" stroke="#e23b42" stroke-width="1.6" stroke-dasharray="2 14"/>
    <circle cx="400" cy="380" r="212" fill="none" stroke="#e23b42" stroke-width="1" opacity=".7"/>
    <circle cx="400" cy="380" r="284" fill="none" stroke="#e23b42" stroke-width="1" stroke-dasharray="60 26" opacity=".45"/>
  </g>

  <g filter="url(#glow)" transform="translate(400 380) rotate(7) scale(4.4) translate(-50 -50)">
    
    <path d="M50 10 c14 8 28 10 30 10 c0 34 -8 56 -30 70 c-22 -14 -30 -36 -30 -70 c2 0 16 -2 30 -10 z" fill="url(#gAccent)" stroke="rgba(10,6,20,.55)" stroke-width="2.4" stroke-linejoin="round" stroke-linecap="round"/>
    <circle cx="50" cy="50" r="22" fill="none" stroke="#f4f0ff" stroke-width="5" opacity=".85"/>
    <circle cx="50" cy="50" r="12" fill="#f4f0ff" opacity=".2"/>
    <path d="M50 38 l3.6 7.6 l8.4 1.2 l-6 6 l1.4 8.4 l-7.4 -4 l-7.4 4 l1.4 -8.4 l-6 -6 l8.4 -1.2 z" fill="#f4f0ff" opacity=".9"/>
  </g>

  <rect width="800" height="800" fill="url(#vig)"/>
</svg>
