<svg xmlns="http://www.w3.org/2000/svg" viewBox="0 0 800 800" width="800" height="800" role="img" aria-label="პატრიკ ჯეინის ჩაის ჭიქა">
  <defs>
    <radialGradient id="bg" cx="50%" cy="42%" r="72%">
      <stop offset="0%" stop-color="#2a416e"/>
      <stop offset="45%" stop-color="#192743"/>
      <stop offset="100%" stop-color="#07040e"/>
    </radialGradient>
    <radialGradient id="halo" cx="50%" cy="50%" r="50%">
      <stop offset="0%" stop-color="#7fa7d4" stop-opacity=".55"/>
      <stop offset="55%" stop-color="#7fa7d4" stop-opacity=".14"/>
      <stop offset="100%" stop-color="#7fa7d4" stop-opacity="0"/>
    </radialGradient>
    <linearGradient id="gMetal" x1="0" y1="0" x2="0.5" y2="1">
      <stop offset="0%" stop-color="#eef0ff"/>
      <stop offset="40%" stop-color="#b9bede"/>
      <stop offset="100%" stop-color="#6b6f95"/>
    </linearGradient>
    <linearGradient id="gAccent" x1="0" y1="0" x2="0.4" y2="1">
      <stop offset="0%" stop-color="#b2eaff"/>
      <stop offset="55%" stop-color="#7fa7d4"/>
      <stop offset="100%" stop-color="#40546a"/>
    </linearGradient>
    <linearGradient id="vig" x1="0" y1="0" x2="0" y2="1">
      <stop offset="0%" stop-color="#000" stop-opacity=".45"/>
      <stop offset="40%" stop-color="#000" stop-opacity="0"/>
      <stop offset="100%" stop-color="#000" stop-opacity=".6"/>
    </linearGradient>
    <filter id="soft" x="-40%" y="-40%" width="180%" height="180%">
      <feGaussianBlur stdDeviation="16"/>
    </filter>
    <filter id="glow" x="-35%" y="-35%" width="170%" height="170%">
      <feDropShadow dx="0" dy="10" stdDeviation="14" flood-color="#000" flood-opacity=".55"/>
      <feDropShadow dx="0" dy="0" stdDeviation="9" flood-color="#7fa7d4" flood-opacity=".55"/>
    </filter>
  </defs>

  <rect width="800" height="800" fill="url(#bg)"/>
  <g><circle cx="158" cy="488" r="1.13" fill="#fff" opacity="0.53"/><circle cx="5" cy="254" r="0.73" fill="#fff" opacity="0.60"/><circle cx="101" cy="496" r="0.72" fill="#fff" opacity="0.57"/><circle cx="798" cy="490" r="1.05" fill="#fff" opacity="0.30"/><circle cx="692" cy="122" r="0.93" fill="#fff" opacity="0.37"/><circle cx="642" cy="260" r="0.60" fill="#fff" opacity="0.51"/><circle cx="633" cy="411" r="0.51" fill="#fff" opacity="0.38"/><circle cx="197" cy="134" r="0.94" fill="#fff" opacity="0.50"/><circle cx="494" cy="496" r="1.12" fill="#fff" opacity="0.18"/><circle cx="347" cy="481" r="0.89" fill="#fff" opacity="0.32"/><circle cx="198" cy="692" r="2.07" fill="#fff" opacity="0.36"/><circle cx="299" cy="207" r="2.03" fill="#fff" opacity="0.56"/><circle cx="46" cy="203" r="1.95" fill="#fff" opacity="0.23"/><circle cx="319" cy="636" r="0.41" fill="#fff" opacity="0.20"/><circle cx="600" cy="393" r="1.50" fill="#fff" opacity="0.47"/><circle cx="34" cy="474" r="1.05" fill="#fff" opacity="0.43"/><circle cx="621" cy="18" r="0.56" fill="#fff" opacity="0.38"/><circle cx="545" cy="765" r="1.58" fill="#fff" opacity="0.25"/><circle cx="657" cy="340" r="1.25" fill="#fff" opacity="0.27"/><circle cx="1" cy="177" r="0.90" fill="#fff" opacity="0.54"/><circle cx="20" cy="344" r="2.00" fill="#fff" opacity="0.19"/><circle cx="463" cy="273" r="1.82" fill="#fff" opacity="0.30"/><circle cx="647" cy="219" r="1.03" fill="#fff" opacity="0.53"/><circle cx="700" cy="589" r="1.19" fill="#fff" opacity="0.65"/><circle cx="659" cy="375" r="1.28" fill="#fff" opacity="0.66"/><circle cx="57" cy="477" r="1.89" fill="#fff" opacity="0.33"/><circle cx="250" cy="337" r="2.06" fill="#fff" opacity="0.65"/><circle cx="420" cy="27" r="1.58" fill="#fff" opacity="0.28"/><circle cx="549" cy="610" r="2.11" fill="#fff" opacity="0.69"/><circle cx="241" cy="755" r="0.61" fill="#fff" opacity="0.45"/><circle cx="492" cy="654" r="0.56" fill="#fff" opacity="0.56"/><circle cx="295" cy="344" r="1.03" fill="#fff" opacity="0.22"/><circle cx="435" cy="118" r="1.75" fill="#fff" opacity="0.27"/><circle cx="62" cy="160" r="0.61" fill="#fff" opacity="0.68"/><circle cx="496" cy="497" r="1.54" fill="#fff" opacity="0.28"/><circle cx="689" cy="19" r="2.13" fill="#fff" opacity="0.58"/><circle cx="507" cy="711" r="0.55" fill="#fff" opacity="0.31"/><circle cx="493" cy="262" r="0.55" fill="#fff" opacity="0.60"/><circle cx="631" cy="383" r="2.08" fill="#fff" opacity="0.62"/><circle cx="524" cy="150" r="1.76" fill="#fff" opacity="0.33"/><circle cx="224" cy="630" r="1.48" fill="#fff" opacity="0.16"/><circle cx="398" cy="261" r="1.84" fill="#fff" opacity="0.46"/><circle cx="632" cy="565" r="0.94" fill="#fff" opacity="0.33"/><circle cx="36" cy="713" r="1.68" fill="#fff" opacity="0.63"/><circle cx="179" cy="662" r="1.15" fill="#fff" opacity="0.53"/><circle cx="689" cy="24" r="1.82" fill="#fff" opacity="0.40"/><circle cx="183" cy="239" r="1.63" fill="#fff" opacity="0.55"/><circle cx="47" cy="619" r="1.74" fill="#fff" opacity="0.51"/><circle cx="33" cy="391" r="0.95" fill="#fff" opacity="0.42"/><circle cx="174" cy="343" r="1.80" fill="#fff" opacity="0.36"/><circle cx="307" cy="50" r="1.40" fill="#fff" opacity="0.32"/><circle cx="798" cy="351" r="1.48" fill="#fff" opacity="0.66"/><circle cx="635" cy="289" r="2.13" fill="#fff" opacity="0.37"/><circle cx="663" cy="549" r="0.84" fill="#fff" opacity="0.57"/><circle cx="797" cy="375" r="1.82" fill="#fff" opacity="0.50"/><circle cx="719" cy="126" r="0.52" fill="#fff" opacity="0.59"/><circle cx="782" cy="526" r="1.68" fill="#fff" opacity="0.23"/><circle cx="108" cy="423" r="0.83" fill="#fff" opacity="0.39"/><circle cx="56" cy="496" r="0.76" fill="#fff" opacity="0.27"/><circle cx="705" cy="78" r="1.04" fill="#fff" opacity="0.65"/><circle cx="539" cy="89" r="1.59" fill="#fff" opacity="0.64"/><circle cx="123" cy="241" r="0.55" fill="#fff" opacity="0.57"/><circle cx="67" cy="84" r="0.78" fill="#fff" opacity="0.26"/><circle cx="672" cy="409" r="1.11" fill="#fff" opacity="0.60"/><circle cx="272" cy="300" r="0.43" fill="#fff" opacity="0.47"/><circle cx="515" cy="731" r="1.11" fill="#fff" opacity="0.33"/><circle cx="120" cy="574" r="0.48" fill="#fff" opacity="0.54"/><circle cx="6" cy="90" r="1.83" fill="#fff" opacity="0.34"/><circle cx="772" cy="361" r="1.19" fill="#fff" opacity="0.27"/><circle cx="792" cy="110" r="2.04" fill="#fff" opacity="0.35"/><circle cx="362" cy="547" r="1.70" fill="#fff" opacity="0.27"/><circle cx="162" cy="127" r="1.75" fill="#fff" opacity="0.59"/><circle cx="142" cy="337" r="1.19" fill="#fff" opacity="0.64"/><circle cx="763" cy="87" r="1.80" fill="#fff" opacity="0.38"/><circle cx="262" cy="491" r="1.23" fill="#fff" opacity="0.61"/><circle cx="433" cy="145" r="1.71" fill="#fff" opacity="0.16"/><circle cx="564" cy="389" r="1.38" fill="#fff" opacity="0.58"/><circle cx="41" cy="703" r="0.50" fill="#fff" opacity="0.61"/><circle cx="485" cy="447" r="0.57" fill="#fff" opacity="0.17"/><circle cx="340" cy="307" r="1.12" fill="#fff" opacity="0.57"/><circle cx="47" cy="5" r="0.51" fill="#fff" opacity="0.21"/><circle cx="88" cy="466" r="0.90" fill="#fff" opacity="0.24"/><circle cx="144" cy="769" r="0.53" fill="#fff" opacity="0.38"/><circle cx="22" cy="173" r="1.96" fill="#fff" opacity="0.21"/><circle cx="633" cy="47" r="1.99" fill="#fff" opacity="0.54"/><circle cx="126" cy="149" r="2.12" fill="#fff" opacity="0.23"/><circle cx="634" cy="326" r="2.19" fill="#fff" opacity="0.18"/><circle cx="406" cy="71" r="1.92" fill="#fff" opacity="0.15"/><circle cx="262" cy="155" r="0.84" fill="#fff" opacity="0.56"/><circle cx="486" cy="424" r="0.90" fill="#fff" opacity="0.30"/></g>
  <g><circle cx="424" cy="31" r="6.4" fill="url(#gAccent)" opacity="0.15"/><circle cx="96" cy="81" r="3.1" fill="url(#gAccent)" opacity="0.04"/><circle cx="8" cy="401" r="3.0" fill="url(#gAccent)" opacity="0.12"/><circle cx="308" cy="661" r="3.3" fill="url(#gAccent)" opacity="0.12"/><circle cx="225" cy="471" r="2.5" fill="url(#gAccent)" opacity="0.16"/><circle cx="567" cy="383" r="2.8" fill="url(#gAccent)" opacity="0.07"/><circle cx="411" cy="87" r="2.2" fill="url(#gAccent)" opacity="0.04"/><circle cx="727" cy="344" r="4.4" fill="url(#gAccent)" opacity="0.16"/><circle cx="306" cy="385" r="5.9" fill="url(#gAccent)" opacity="0.17"/><circle cx="478" cy="125" r="4.0" fill="url(#gAccent)" opacity="0.06"/><circle cx="349" cy="223" r="2.3" fill="url(#gAccent)" opacity="0.12"/><circle cx="111" cy="3" r="5.1" fill="url(#gAccent)" opacity="0.06"/><circle cx="739" cy="643" r="4.4" fill="url(#gAccent)" opacity="0.11"/><circle cx="545" cy="76" r="4.0" fill="url(#gAccent)" opacity="0.18"/></g>
  <circle cx="400" cy="400" r="250" fill="url(#halo)"/>
  <ellipse cx="400" cy="610" rx="200" ry="34" fill="#000" opacity=".45" filter="url(#soft)"/>

  <g opacity="0.32" transform="rotate(48 400 400)">
    <circle cx="400" cy="400" r="248" fill="none" stroke="#7fa7d4" stroke-width="1.6" stroke-dasharray="2 14"/>
    <circle cx="400" cy="400" r="212" fill="none" stroke="#7fa7d4" stroke-width="1" opacity=".7"/>
    <circle cx="400" cy="400" r="284" fill="none" stroke="#7fa7d4" stroke-width="1" stroke-dasharray="60 26" opacity=".45"/>
  </g>

  <g filter="url(#glow)" transform="translate(400 400) rotate(-8) scale(5) translate(-50 -50)">
    
    <ellipse cx="48" cy="84" rx="34" ry="7" fill="url(#gMetal)" opacity=".9"/>
    <path d="M26 44 h44 l-5 26 a10 10 0 0 1 -10 8 h-14 a10 10 0 0 1 -10 -8 z" fill="#f4f0ff" stroke="rgba(10,6,20,.55)" stroke-width="1.8" stroke-linejoin="round" stroke-linecap="round"/>
    <path d="M70 50 a12 12 0 0 1 0 20" fill="none" stroke="#f4f0ff" stroke-width="5"/>
    <ellipse cx="48" cy="44" rx="22" ry="6" fill="url(#gAccent)" opacity=".5"/>
    <path d="M26 48 h44" stroke="url(#gAccent)" stroke-width="2.4"/>
    <path d="M40 30 q4 -8 0 -14 M52 32 q4 -9 0 -16" stroke="#f4f0ff" stroke-opacity=".4" stroke-width="2.4" fill="none" stroke-linecap="round"/>
  </g>

  <rect width="800" height="800" fill="url(#vig)"/>
</svg>
