<svg xmlns="http://www.w3.org/2000/svg" viewBox="0 0 800 800" width="800" height="800" role="img" aria-label="დროის მბრუნავი — ყელსაბამი">
  <defs>
    <radialGradient id="bg" cx="50%" cy="42%" r="72%">
      <stop offset="0%" stop-color="#ea5648"/>
      <stop offset="45%" stop-color="#8d342c"/>
      <stop offset="100%" stop-color="#07040e"/>
    </radialGradient>
    <radialGradient id="halo" cx="50%" cy="50%" r="50%">
      <stop offset="0%" stop-color="#c9a227" stop-opacity=".55"/>
      <stop offset="55%" stop-color="#c9a227" stop-opacity=".14"/>
      <stop offset="100%" stop-color="#c9a227" stop-opacity="0"/>
    </radialGradient>
    <linearGradient id="gMetal" x1="0" y1="0" x2="0.5" y2="1">
      <stop offset="0%" stop-color="#eef0ff"/>
      <stop offset="40%" stop-color="#b9bede"/>
      <stop offset="100%" stop-color="#6b6f95"/>
    </linearGradient>
    <linearGradient id="gAccent" x1="0" y1="0" x2="0.4" y2="1">
      <stop offset="0%" stop-color="#ffe337"/>
      <stop offset="55%" stop-color="#c9a227"/>
      <stop offset="100%" stop-color="#655114"/>
    </linearGradient>
    <linearGradient id="vig" x1="0" y1="0" x2="0" y2="1">
      <stop offset="0%" stop-color="#000" stop-opacity=".45"/>
      <stop offset="40%" stop-color="#000" stop-opacity="0"/>
      <stop offset="100%" stop-color="#000" stop-opacity=".6"/>
    </linearGradient>
    <filter id="soft" x="-40%" y="-40%" width="180%" height="180%">
      <feGaussianBlur stdDeviation="16"/>
    </filter>
    <filter id="glow" x="-35%" y="-35%" width="170%" height="170%">
      <feDropShadow dx="0" dy="10" stdDeviation="14" flood-color="#000" flood-opacity=".55"/>
      <feDropShadow dx="0" dy="0" stdDeviation="9" flood-color="#c9a227" flood-opacity=".55"/>
    </filter>
  </defs>

  <rect width="800" height="800" fill="url(#bg)"/>
  <g><circle cx="468" cy="767" r="1.03" fill="#fff" opacity="0.53"/><circle cx="617" cy="292" r="1.63" fill="#fff" opacity="0.24"/><circle cx="622" cy="554" r="0.97" fill="#fff" opacity="0.17"/><circle cx="627" cy="737" r="1.59" fill="#fff" opacity="0.38"/><circle cx="99" cy="119" r="1.16" fill="#fff" opacity="0.41"/><circle cx="779" cy="94" r="1.90" fill="#fff" opacity="0.69"/><circle cx="82" cy="455" r="2.16" fill="#fff" opacity="0.19"/><circle cx="737" cy="495" r="1.64" fill="#fff" opacity="0.70"/><circle cx="492" cy="322" r="0.81" fill="#fff" opacity="0.43"/><circle cx="477" cy="167" r="1.49" fill="#fff" opacity="0.18"/><circle cx="513" cy="613" r="2.13" fill="#fff" opacity="0.40"/><circle cx="142" cy="41" r="0.46" fill="#fff" opacity="0.40"/><circle cx="687" cy="395" r="1.03" fill="#fff" opacity="0.23"/><circle cx="345" cy="95" r="1.06" fill="#fff" opacity="0.50"/><circle cx="167" cy="572" r="0.53" fill="#fff" opacity="0.35"/><circle cx="528" cy="436" r="2.12" fill="#fff" opacity="0.17"/><circle cx="339" cy="81" r="1.99" fill="#fff" opacity="0.18"/><circle cx="10" cy="535" r="1.04" fill="#fff" opacity="0.58"/><circle cx="199" cy="772" r="1.79" fill="#fff" opacity="0.29"/><circle cx="700" cy="720" r="0.88" fill="#fff" opacity="0.23"/><circle cx="299" cy="460" r="1.73" fill="#fff" opacity="0.60"/><circle cx="83" cy="316" r="1.23" fill="#fff" opacity="0.49"/><circle cx="474" cy="225" r="1.98" fill="#fff" opacity="0.19"/><circle cx="50" cy="8" r="1.03" fill="#fff" opacity="0.18"/><circle cx="489" cy="581" r="2.06" fill="#fff" opacity="0.61"/><circle cx="134" cy="422" r="1.50" fill="#fff" opacity="0.53"/><circle cx="98" cy="200" r="1.30" fill="#fff" opacity="0.67"/><circle cx="669" cy="33" r="0.45" fill="#fff" opacity="0.62"/><circle cx="680" cy="91" r="0.57" fill="#fff" opacity="0.54"/><circle cx="790" cy="795" r="1.24" fill="#fff" opacity="0.67"/><circle cx="414" cy="460" r="0.79" fill="#fff" opacity="0.42"/><circle cx="281" cy="237" r="1.65" fill="#fff" opacity="0.34"/><circle cx="788" cy="234" r="1.01" fill="#fff" opacity="0.30"/><circle cx="8" cy="642" r="1.33" fill="#fff" opacity="0.63"/><circle cx="306" cy="604" r="1.44" fill="#fff" opacity="0.63"/><circle cx="683" cy="518" r="1.56" fill="#fff" opacity="0.22"/><circle cx="730" cy="127" r="1.97" fill="#fff" opacity="0.55"/><circle cx="724" cy="304" r="1.52" fill="#fff" opacity="0.34"/><circle cx="60" cy="175" r="0.71" fill="#fff" opacity="0.39"/><circle cx="756" cy="315" r="0.59" fill="#fff" opacity="0.36"/><circle cx="720" cy="362" r="1.36" fill="#fff" opacity="0.48"/><circle cx="713" cy="471" r="1.09" fill="#fff" opacity="0.29"/><circle cx="437" cy="468" r="1.14" fill="#fff" opacity="0.61"/><circle cx="623" cy="545" r="1.96" fill="#fff" opacity="0.37"/><circle cx="78" cy="98" r="1.54" fill="#fff" opacity="0.63"/><circle cx="480" cy="164" r="0.72" fill="#fff" opacity="0.51"/><circle cx="797" cy="410" r="0.80" fill="#fff" opacity="0.68"/><circle cx="289" cy="21" r="0.45" fill="#fff" opacity="0.31"/><circle cx="62" cy="578" r="2.05" fill="#fff" opacity="0.57"/><circle cx="329" cy="729" r="0.68" fill="#fff" opacity="0.56"/><circle cx="701" cy="574" r="1.12" fill="#fff" opacity="0.49"/><circle cx="605" cy="432" r="0.57" fill="#fff" opacity="0.58"/><circle cx="17" cy="473" r="0.99" fill="#fff" opacity="0.62"/><circle cx="745" cy="33" r="0.82" fill="#fff" opacity="0.46"/><circle cx="149" cy="7" r="1.91" fill="#fff" opacity="0.34"/><circle cx="649" cy="749" r="1.69" fill="#fff" opacity="0.43"/><circle cx="683" cy="235" r="1.09" fill="#fff" opacity="0.35"/><circle cx="693" cy="414" r="0.46" fill="#fff" opacity="0.39"/><circle cx="57" cy="741" r="1.10" fill="#fff" opacity="0.47"/><circle cx="176" cy="148" r="1.32" fill="#fff" opacity="0.17"/><circle cx="5" cy="55" r="0.41" fill="#fff" opacity="0.21"/><circle cx="241" cy="265" r="2.01" fill="#fff" opacity="0.62"/><circle cx="274" cy="8" r="1.95" fill="#fff" opacity="0.42"/><circle cx="112" cy="643" r="2.12" fill="#fff" opacity="0.33"/><circle cx="81" cy="460" r="1.24" fill="#fff" opacity="0.17"/><circle cx="220" cy="756" r="2.20" fill="#fff" opacity="0.29"/><circle cx="220" cy="744" r="0.90" fill="#fff" opacity="0.60"/><circle cx="388" cy="607" r="1.86" fill="#fff" opacity="0.61"/><circle cx="252" cy="480" r="0.41" fill="#fff" opacity="0.27"/><circle cx="713" cy="56" r="1.09" fill="#fff" opacity="0.56"/><circle cx="223" cy="608" r="1.69" fill="#fff" opacity="0.44"/><circle cx="182" cy="232" r="0.71" fill="#fff" opacity="0.38"/><circle cx="315" cy="460" r="2.08" fill="#fff" opacity="0.18"/><circle cx="17" cy="223" r="1.66" fill="#fff" opacity="0.30"/><circle cx="57" cy="643" r="0.77" fill="#fff" opacity="0.68"/><circle cx="689" cy="753" r="2.18" fill="#fff" opacity="0.32"/><circle cx="242" cy="218" r="1.66" fill="#fff" opacity="0.55"/><circle cx="566" cy="12" r="0.88" fill="#fff" opacity="0.69"/><circle cx="762" cy="55" r="1.87" fill="#fff" opacity="0.59"/><circle cx="557" cy="564" r="0.86" fill="#fff" opacity="0.51"/><circle cx="289" cy="318" r="1.97" fill="#fff" opacity="0.29"/><circle cx="355" cy="711" r="1.01" fill="#fff" opacity="0.41"/><circle cx="773" cy="326" r="2.18" fill="#fff" opacity="0.58"/><circle cx="115" cy="276" r="1.01" fill="#fff" opacity="0.46"/><circle cx="414" cy="125" r="0.92" fill="#fff" opacity="0.17"/><circle cx="80" cy="129" r="0.64" fill="#fff" opacity="0.37"/><circle cx="615" cy="500" r="0.78" fill="#fff" opacity="0.47"/><circle cx="294" cy="91" r="1.68" fill="#fff" opacity="0.32"/><circle cx="340" cy="798" r="1.76" fill="#fff" opacity="0.47"/><circle cx="404" cy="45" r="2.09" fill="#fff" opacity="0.43"/></g>
  <g><circle cx="745" cy="361" r="3.7" fill="url(#gAccent)" opacity="0.04"/><circle cx="303" cy="707" r="6.2" fill="url(#gAccent)" opacity="0.10"/><circle cx="620" cy="47" r="4.7" fill="url(#gAccent)" opacity="0.11"/><circle cx="640" cy="499" r="2.1" fill="url(#gAccent)" opacity="0.05"/><circle cx="578" cy="306" r="2.0" fill="url(#gAccent)" opacity="0.17"/><circle cx="365" cy="155" r="6.0" fill="url(#gAccent)" opacity="0.15"/><circle cx="222" cy="273" r="4.2" fill="url(#gAccent)" opacity="0.05"/><circle cx="693" cy="564" r="6.0" fill="url(#gAccent)" opacity="0.10"/><circle cx="534" cy="297" r="4.9" fill="url(#gAccent)" opacity="0.10"/><circle cx="7" cy="314" r="3.6" fill="url(#gAccent)" opacity="0.08"/><circle cx="122" cy="86" r="2.7" fill="url(#gAccent)" opacity="0.06"/><circle cx="734" cy="147" r="2.4" fill="url(#gAccent)" opacity="0.15"/><circle cx="185" cy="703" r="4.3" fill="url(#gAccent)" opacity="0.08"/><circle cx="59" cy="80" r="2.9" fill="url(#gAccent)" opacity="0.18"/></g>
  <circle cx="400" cy="400" r="250" fill="url(#halo)"/>
  <ellipse cx="400" cy="610" rx="200" ry="34" fill="#000" opacity=".45" filter="url(#soft)"/>

  <g opacity="0.5" transform="rotate(24 400 400)">
    <circle cx="400" cy="400" r="248" fill="none" stroke="#c9a227" stroke-width="1.6" stroke-dasharray="2 14"/>
    <circle cx="400" cy="400" r="212" fill="none" stroke="#c9a227" stroke-width="1" opacity=".7"/>
    <circle cx="400" cy="400" r="284" fill="none" stroke="#c9a227" stroke-width="1" stroke-dasharray="60 26" opacity=".45"/>
  </g>

  <g filter="url(#glow)" transform="translate(400 400) rotate(0) scale(5.4) translate(-50 -50)">
    
    <circle cx="50" cy="50" r="36" fill="none" stroke="url(#gMetal)" stroke-width="3"/>
    <ellipse cx="50" cy="50" rx="36" ry="13" fill="none" stroke="url(#gMetal)" stroke-width="2.4" opacity=".8"/>
    <ellipse cx="50" cy="50" rx="13" ry="36" fill="none" stroke="url(#gMetal)" stroke-width="2.4" opacity=".8"/>
    <path d="M40 32 h20 l-10 16 z" fill="url(#gAccent)" opacity=".9"/>
    <path d="M40 68 h20 l-10 -16 z" fill="url(#gAccent)" opacity=".55"/>
    <path d="M38 30 h24 M38 70 h24" stroke="url(#gMetal)" stroke-width="3" stroke-linecap="round"/>
  </g>

  <rect width="800" height="800" fill="url(#vig)"/>
</svg>
