<svg xmlns="http://www.w3.org/2000/svg" viewBox="0 0 800 800" width="800" height="800" role="img" aria-label="მის პერეგრინის ჯიბის საათი">
  <defs>
    <radialGradient id="bg" cx="50%" cy="42%" r="72%">
      <stop offset="0%" stop-color="#333f2e"/>
      <stop offset="45%" stop-color="#1f261c"/>
      <stop offset="100%" stop-color="#07040e"/>
    </radialGradient>
    <radialGradient id="halo" cx="50%" cy="50%" r="50%">
      <stop offset="0%" stop-color="#8fa17a" stop-opacity=".55"/>
      <stop offset="55%" stop-color="#8fa17a" stop-opacity=".14"/>
      <stop offset="100%" stop-color="#8fa17a" stop-opacity="0"/>
    </radialGradient>
    <linearGradient id="gMetal" x1="0" y1="0" x2="0.5" y2="1">
      <stop offset="0%" stop-color="#eef0ff"/>
      <stop offset="40%" stop-color="#b9bede"/>
      <stop offset="100%" stop-color="#6b6f95"/>
    </linearGradient>
    <linearGradient id="gAccent" x1="0" y1="0" x2="0.4" y2="1">
      <stop offset="0%" stop-color="#c8e1ab"/>
      <stop offset="55%" stop-color="#8fa17a"/>
      <stop offset="100%" stop-color="#48513d"/>
    </linearGradient>
    <linearGradient id="vig" x1="0" y1="0" x2="0" y2="1">
      <stop offset="0%" stop-color="#000" stop-opacity=".45"/>
      <stop offset="40%" stop-color="#000" stop-opacity="0"/>
      <stop offset="100%" stop-color="#000" stop-opacity=".6"/>
    </linearGradient>
    <filter id="soft" x="-40%" y="-40%" width="180%" height="180%">
      <feGaussianBlur stdDeviation="16"/>
    </filter>
    <filter id="glow" x="-35%" y="-35%" width="170%" height="170%">
      <feDropShadow dx="0" dy="10" stdDeviation="14" flood-color="#000" flood-opacity=".55"/>
      <feDropShadow dx="0" dy="0" stdDeviation="9" flood-color="#8fa17a" flood-opacity=".55"/>
    </filter>
  </defs>

  <rect width="800" height="800" fill="url(#bg)"/>
  <g><circle cx="624" cy="361" r="2.06" fill="#fff" opacity="0.68"/><circle cx="387" cy="91" r="2.11" fill="#fff" opacity="0.33"/><circle cx="580" cy="130" r="0.75" fill="#fff" opacity="0.60"/><circle cx="334" cy="177" r="1.68" fill="#fff" opacity="0.50"/><circle cx="538" cy="223" r="0.80" fill="#fff" opacity="0.35"/><circle cx="662" cy="495" r="0.82" fill="#fff" opacity="0.40"/><circle cx="20" cy="600" r="1.20" fill="#fff" opacity="0.46"/><circle cx="115" cy="657" r="2.04" fill="#fff" opacity="0.58"/><circle cx="578" cy="535" r="0.52" fill="#fff" opacity="0.42"/><circle cx="126" cy="93" r="1.58" fill="#fff" opacity="0.64"/><circle cx="571" cy="377" r="1.19" fill="#fff" opacity="0.56"/><circle cx="3" cy="341" r="0.79" fill="#fff" opacity="0.30"/><circle cx="8" cy="613" r="0.87" fill="#fff" opacity="0.55"/><circle cx="480" cy="268" r="1.11" fill="#fff" opacity="0.68"/><circle cx="169" cy="518" r="1.95" fill="#fff" opacity="0.47"/><circle cx="313" cy="333" r="1.93" fill="#fff" opacity="0.69"/><circle cx="542" cy="535" r="1.23" fill="#fff" opacity="0.43"/><circle cx="5" cy="185" r="1.85" fill="#fff" opacity="0.23"/><circle cx="39" cy="747" r="1.55" fill="#fff" opacity="0.25"/><circle cx="208" cy="321" r="1.98" fill="#fff" opacity="0.28"/><circle cx="674" cy="60" r="1.74" fill="#fff" opacity="0.61"/><circle cx="586" cy="739" r="0.86" fill="#fff" opacity="0.45"/><circle cx="171" cy="105" r="1.91" fill="#fff" opacity="0.37"/><circle cx="517" cy="309" r="0.78" fill="#fff" opacity="0.60"/><circle cx="755" cy="716" r="0.61" fill="#fff" opacity="0.30"/><circle cx="274" cy="359" r="1.41" fill="#fff" opacity="0.41"/><circle cx="202" cy="81" r="1.91" fill="#fff" opacity="0.58"/><circle cx="193" cy="202" r="1.17" fill="#fff" opacity="0.44"/><circle cx="667" cy="45" r="1.30" fill="#fff" opacity="0.42"/><circle cx="389" cy="315" r="1.24" fill="#fff" opacity="0.64"/><circle cx="768" cy="540" r="2.19" fill="#fff" opacity="0.51"/><circle cx="470" cy="342" r="0.65" fill="#fff" opacity="0.37"/><circle cx="606" cy="676" r="1.41" fill="#fff" opacity="0.27"/><circle cx="771" cy="399" r="1.13" fill="#fff" opacity="0.17"/><circle cx="591" cy="69" r="0.88" fill="#fff" opacity="0.52"/><circle cx="342" cy="247" r="1.37" fill="#fff" opacity="0.22"/><circle cx="442" cy="409" r="1.65" fill="#fff" opacity="0.50"/><circle cx="179" cy="142" r="1.05" fill="#fff" opacity="0.57"/><circle cx="439" cy="322" r="1.72" fill="#fff" opacity="0.34"/><circle cx="619" cy="503" r="2.12" fill="#fff" opacity="0.22"/><circle cx="474" cy="436" r="1.23" fill="#fff" opacity="0.59"/><circle cx="623" cy="540" r="0.93" fill="#fff" opacity="0.18"/><circle cx="646" cy="416" r="1.71" fill="#fff" opacity="0.53"/><circle cx="793" cy="438" r="0.74" fill="#fff" opacity="0.44"/><circle cx="676" cy="781" r="1.89" fill="#fff" opacity="0.18"/><circle cx="2" cy="201" r="2.19" fill="#fff" opacity="0.55"/><circle cx="23" cy="99" r="1.56" fill="#fff" opacity="0.21"/><circle cx="376" cy="656" r="1.88" fill="#fff" opacity="0.48"/><circle cx="640" cy="141" r="1.44" fill="#fff" opacity="0.15"/><circle cx="529" cy="777" r="1.68" fill="#fff" opacity="0.25"/><circle cx="132" cy="19" r="1.37" fill="#fff" opacity="0.57"/><circle cx="354" cy="677" r="2.15" fill="#fff" opacity="0.32"/><circle cx="536" cy="146" r="1.20" fill="#fff" opacity="0.67"/><circle cx="652" cy="161" r="1.20" fill="#fff" opacity="0.37"/><circle cx="293" cy="548" r="1.31" fill="#fff" opacity="0.65"/><circle cx="723" cy="667" r="0.57" fill="#fff" opacity="0.65"/><circle cx="88" cy="280" r="0.55" fill="#fff" opacity="0.22"/><circle cx="587" cy="533" r="1.50" fill="#fff" opacity="0.32"/><circle cx="620" cy="345" r="0.89" fill="#fff" opacity="0.31"/><circle cx="410" cy="685" r="1.75" fill="#fff" opacity="0.65"/><circle cx="755" cy="341" r="1.31" fill="#fff" opacity="0.53"/><circle cx="797" cy="650" r="1.57" fill="#fff" opacity="0.38"/><circle cx="39" cy="44" r="0.58" fill="#fff" opacity="0.64"/><circle cx="683" cy="625" r="0.52" fill="#fff" opacity="0.40"/><circle cx="640" cy="567" r="1.68" fill="#fff" opacity="0.28"/><circle cx="467" cy="725" r="1.68" fill="#fff" opacity="0.45"/><circle cx="683" cy="400" r="1.25" fill="#fff" opacity="0.38"/><circle cx="570" cy="303" r="2.01" fill="#fff" opacity="0.22"/><circle cx="750" cy="39" r="1.13" fill="#fff" opacity="0.37"/><circle cx="77" cy="232" r="0.89" fill="#fff" opacity="0.43"/><circle cx="236" cy="695" r="1.21" fill="#fff" opacity="0.53"/><circle cx="452" cy="629" r="0.76" fill="#fff" opacity="0.50"/><circle cx="104" cy="240" r="0.87" fill="#fff" opacity="0.16"/><circle cx="683" cy="231" r="1.00" fill="#fff" opacity="0.61"/><circle cx="780" cy="370" r="1.62" fill="#fff" opacity="0.38"/><circle cx="262" cy="684" r="1.42" fill="#fff" opacity="0.24"/><circle cx="710" cy="120" r="2.03" fill="#fff" opacity="0.16"/><circle cx="348" cy="80" r="1.86" fill="#fff" opacity="0.52"/><circle cx="411" cy="565" r="1.01" fill="#fff" opacity="0.70"/><circle cx="237" cy="624" r="1.77" fill="#fff" opacity="0.59"/><circle cx="122" cy="510" r="1.51" fill="#fff" opacity="0.62"/><circle cx="28" cy="441" r="1.31" fill="#fff" opacity="0.69"/><circle cx="440" cy="325" r="1.36" fill="#fff" opacity="0.42"/><circle cx="323" cy="173" r="1.59" fill="#fff" opacity="0.59"/><circle cx="460" cy="676" r="1.93" fill="#fff" opacity="0.34"/><circle cx="70" cy="641" r="2.05" fill="#fff" opacity="0.45"/><circle cx="216" cy="139" r="0.56" fill="#fff" opacity="0.48"/><circle cx="287" cy="279" r="0.66" fill="#fff" opacity="0.22"/><circle cx="240" cy="81" r="2.18" fill="#fff" opacity="0.52"/><circle cx="545" cy="787" r="0.74" fill="#fff" opacity="0.66"/></g>
  <g><circle cx="399" cy="187" r="2.6" fill="url(#gAccent)" opacity="0.09"/><circle cx="798" cy="600" r="2.1" fill="url(#gAccent)" opacity="0.07"/><circle cx="530" cy="61" r="4.4" fill="url(#gAccent)" opacity="0.05"/><circle cx="778" cy="430" r="4.0" fill="url(#gAccent)" opacity="0.11"/><circle cx="319" cy="330" r="6.5" fill="url(#gAccent)" opacity="0.09"/><circle cx="315" cy="542" r="3.5" fill="url(#gAccent)" opacity="0.10"/><circle cx="614" cy="384" r="3.2" fill="url(#gAccent)" opacity="0.05"/><circle cx="39" cy="220" r="3.8" fill="url(#gAccent)" opacity="0.10"/><circle cx="426" cy="142" r="6.6" fill="url(#gAccent)" opacity="0.18"/><circle cx="99" cy="218" r="6.8" fill="url(#gAccent)" opacity="0.13"/><circle cx="353" cy="705" r="7.0" fill="url(#gAccent)" opacity="0.09"/><circle cx="691" cy="613" r="3.5" fill="url(#gAccent)" opacity="0.05"/><circle cx="128" cy="760" r="5.9" fill="url(#gAccent)" opacity="0.08"/><circle cx="114" cy="304" r="4.7" fill="url(#gAccent)" opacity="0.15"/></g>
  <circle cx="400" cy="380" r="250" fill="url(#halo)"/>
  <ellipse cx="400" cy="590" rx="200" ry="34" fill="#000" opacity=".45" filter="url(#soft)"/>

  <g opacity="0.32" transform="rotate(72 400 380)">
    <circle cx="400" cy="380" r="248" fill="none" stroke="#8fa17a" stroke-width="1.6" stroke-dasharray="2 14"/>
    <circle cx="400" cy="380" r="212" fill="none" stroke="#8fa17a" stroke-width="1" opacity=".7"/>
    <circle cx="400" cy="380" r="284" fill="none" stroke="#8fa17a" stroke-width="1" stroke-dasharray="60 26" opacity=".45"/>
  </g>

  <g filter="url(#glow)" transform="translate(400 380) rotate(7) scale(4.4) translate(-50 -50)">
    
    <circle cx="50" cy="56" r="30" fill="url(#gMetal)" stroke="rgba(10,6,20,.55)" stroke-width="2.4" stroke-linejoin="round" stroke-linecap="round"/>
    <circle cx="50" cy="56" r="23" fill="#f4f0ff" opacity=".92"/>
    <rect x="45" y="16" width="10" height="10" rx="3" fill="url(#gMetal)"/>
    <circle cx="50" cy="12" r="6" fill="none" stroke="url(#gMetal)" stroke-width="3"/>
    <path d="M50 56 L50 40 M50 56 L62 62" stroke="#100a1c" stroke-width="2.6" stroke-linecap="round"/>
    <circle cx="50" cy="56" r="2.6" fill="url(#gAccent)"/>
    <path d="M50 36 v4 M70 56 h-4 M50 76 v-4 M30 56 h4" stroke="#100a1c" stroke-width="2" opacity=".7"/>
  </g>

  <rect width="800" height="800" fill="url(#vig)"/>
</svg>
