<svg xmlns="http://www.w3.org/2000/svg" viewBox="0 0 640 400" preserveAspectRatio="xMidYMid slice">
<defs>
  <radialGradient id="b" cx="30%" cy="24%" r="95%">
    <stop offset="0%" stop-color="#191742"/><stop offset="60%" stop-color="#141b45"/><stop offset="100%" stop-color="#07040e"/>
  </radialGradient>
  <linearGradient id="p" x1="0" y1="0" x2="1" y2="1">
    <stop offset="0%" stop-color="#a58bf0" stop-opacity=".55"/><stop offset="100%" stop-color="#a58bf0" stop-opacity="0"/>
  </linearGradient>
  <filter id="f"><feGaussianBlur stdDeviation="26"/></filter>
</defs>
<rect width="640" height="400" fill="url(#b)"/>
<circle cx="520" cy="70" r="130" fill="#a58bf0" opacity=".16" filter="url(#f)"/>
<circle cx="90" cy="330" r="150" fill="#e9c46a" opacity=".1" filter="url(#f)"/>
<circle cx="402" cy="182" r="1.6" fill="#fff" opacity="0.21"/><circle cx="356" cy="384" r="1.8" fill="#fff" opacity="0.23"/><circle cx="105" cy="342" r="1.3" fill="#fff" opacity="0.32"/><circle cx="79" cy="120" r="1.1" fill="#fff" opacity="0.55"/><circle cx="231" cy="226" r="0.8" fill="#fff" opacity="0.56"/><circle cx="34" cy="74" r="1.1" fill="#fff" opacity="0.12"/><circle cx="419" cy="102" r="1.8" fill="#fff" opacity="0.55"/><circle cx="315" cy="216" r="1.1" fill="#fff" opacity="0.28"/><circle cx="207" cy="387" r="1.2" fill="#fff" opacity="0.32"/><circle cx="140" cy="217" r="0.7" fill="#fff" opacity="0.15"/><circle cx="212" cy="387" r="1.7" fill="#fff" opacity="0.46"/><circle cx="298" cy="25" r="0.8" fill="#fff" opacity="0.46"/><circle cx="181" cy="327" r="1.5" fill="#fff" opacity="0.34"/><circle cx="312" cy="127" r="0.7" fill="#fff" opacity="0.60"/><circle cx="246" cy="280" r="1.0" fill="#fff" opacity="0.33"/><circle cx="289" cy="245" r="1.4" fill="#fff" opacity="0.55"/><circle cx="62" cy="102" r="1.4" fill="#fff" opacity="0.45"/><circle cx="492" cy="337" r="1.6" fill="#fff" opacity="0.44"/><circle cx="498" cy="247" r="1.1" fill="#fff" opacity="0.22"/><circle cx="89" cy="279" r="1.7" fill="#fff" opacity="0.17"/><circle cx="530" cy="85" r="1.2" fill="#fff" opacity="0.19"/><circle cx="497" cy="379" r="1.7" fill="#fff" opacity="0.20"/><circle cx="285" cy="115" r="1.4" fill="#fff" opacity="0.29"/><circle cx="356" cy="168" r="1.4" fill="#fff" opacity="0.52"/><circle cx="283" cy="66" r="0.8" fill="#fff" opacity="0.56"/><circle cx="303" cy="27" r="0.9" fill="#fff" opacity="0.12"/>

    <path d="M470 90 a26 26 0 1 0 16 42 a20 20 0 0 1 -16 -42 z" fill="#e9c46a" opacity=".85"/>
    <path d="M90 350 v-60 h20 v-30 l14 -18 14 18 v30 h24 v-46 l16 -20 16 20 v46 h20 v60 z" fill="#0d0f33" stroke="#a58bf0" stroke-opacity=".6" stroke-width="2"/>
    <path d="M120 140 q60 -40 150 -10" stroke="#fff" stroke-opacity=".35" stroke-width="2" stroke-dasharray="1 8" stroke-linecap="round" fill="none"/>
    <path d="M262 128 l3 6 6 3 -6 3 -3 6 -3 -6 -6 -3 6 -3 z" fill="#fff" opacity=".8"/>
    <circle cx="513" cy="124" r="0.8" fill="#fff" opacity="0.61"/><circle cx="638" cy="229" r="1.9" fill="#fff" opacity="0.44"/><circle cx="45" cy="16" r="1.0" fill="#fff" opacity="0.37"/><circle cx="131" cy="161" r="1.2" fill="#fff" opacity="0.16"/><circle cx="143" cy="229" r="0.7" fill="#fff" opacity="0.59"/><circle cx="311" cy="398" r="0.6" fill="#fff" opacity="0.77"/><circle cx="206" cy="362" r="0.7" fill="#fff" opacity="0.73"/><circle cx="320" cy="188" r="0.8" fill="#fff" opacity="0.72"/><circle cx="595" cy="124" r="1.5" fill="#fff" opacity="0.55"/><circle cx="42" cy="312" r="1.4" fill="#fff" opacity="0.27"/><circle cx="321" cy="298" r="1.7" fill="#fff" opacity="0.25"/><circle cx="534" cy="309" r="0.7" fill="#fff" opacity="0.41"/><circle cx="31" cy="191" r="1.2" fill="#fff" opacity="0.52"/><circle cx="57" cy="295" r="1.2" fill="#fff" opacity="0.64"/><circle cx="237" cy="84" r="1.0" fill="#fff" opacity="0.77"/><circle cx="399" cy="162" r="1.1" fill="#fff" opacity="0.32"/><circle cx="290" cy="107" r="1.8" fill="#fff" opacity="0.24"/><circle cx="570" cy="100" r="0.8" fill="#fff" opacity="0.60"/>
<rect width="640" height="400" fill="url(#p)" opacity=".12"/>
</svg>