<svg xmlns="http://www.w3.org/2000/svg" viewBox="0 0 640 400" preserveAspectRatio="xMidYMid slice">
<defs>
  <radialGradient id="b" cx="30%" cy="24%" r="95%">
    <stop offset="0%" stop-color="#1b180f"/><stop offset="60%" stop-color="#171512"/><stop offset="100%" stop-color="#07040e"/>
  </radialGradient>
  <linearGradient id="p" x1="0" y1="0" x2="1" y2="1">
    <stop offset="0%" stop-color="#f2c230" stop-opacity=".55"/><stop offset="100%" stop-color="#f2c230" stop-opacity="0"/>
  </linearGradient>
  <filter id="f"><feGaussianBlur stdDeviation="26"/></filter>
</defs>
<rect width="640" height="400" fill="url(#b)"/>
<circle cx="520" cy="70" r="130" fill="#f2c230" opacity=".16" filter="url(#f)"/>
<circle cx="90" cy="330" r="150" fill="#e0483a" opacity=".1" filter="url(#f)"/>
<circle cx="273" cy="157" r="1.9" fill="#fff" opacity="0.44"/><circle cx="378" cy="198" r="0.9" fill="#fff" opacity="0.19"/><circle cx="481" cy="390" r="0.8" fill="#fff" opacity="0.17"/><circle cx="323" cy="388" r="0.5" fill="#fff" opacity="0.34"/><circle cx="632" cy="194" r="1.8" fill="#fff" opacity="0.25"/><circle cx="465" cy="14" r="1.6" fill="#fff" opacity="0.49"/><circle cx="438" cy="277" r="0.6" fill="#fff" opacity="0.34"/><circle cx="547" cy="10" r="0.6" fill="#fff" opacity="0.17"/><circle cx="126" cy="360" r="1.6" fill="#fff" opacity="0.58"/><circle cx="602" cy="353" r="1.3" fill="#fff" opacity="0.44"/><circle cx="75" cy="19" r="1.2" fill="#fff" opacity="0.11"/><circle cx="282" cy="355" r="1.7" fill="#fff" opacity="0.35"/><circle cx="503" cy="381" r="0.5" fill="#fff" opacity="0.41"/><circle cx="213" cy="37" r="1.7" fill="#fff" opacity="0.20"/><circle cx="414" cy="138" r="0.9" fill="#fff" opacity="0.28"/><circle cx="11" cy="67" r="0.6" fill="#fff" opacity="0.55"/><circle cx="7" cy="47" r="1.2" fill="#fff" opacity="0.36"/><circle cx="259" cy="249" r="1.2" fill="#fff" opacity="0.48"/><circle cx="355" cy="12" r="1.0" fill="#fff" opacity="0.24"/><circle cx="306" cy="168" r="1.6" fill="#fff" opacity="0.10"/><circle cx="494" cy="234" r="1.4" fill="#fff" opacity="0.55"/><circle cx="621" cy="308" r="1.2" fill="#fff" opacity="0.13"/><circle cx="216" cy="41" r="0.7" fill="#fff" opacity="0.51"/><circle cx="611" cy="340" r="1.5" fill="#fff" opacity="0.22"/><circle cx="521" cy="399" r="1.8" fill="#fff" opacity="0.58"/><circle cx="88" cy="184" r="1.3" fill="#fff" opacity="0.12"/>

    <rect x="0" y="150" width="640" height="70" fill="#f2c230" opacity=".2"/>
    <rect x="0" y="164" width="640" height="42" fill="#f2c230" opacity=".35"/>
    <path d="M60 340 L560 60" stroke="#f4f0e6" stroke-opacity=".5" stroke-width="2.4"/>
    <path d="M60 340 L120 300" stroke="#171512" stroke-width="7" stroke-linecap="round"/>
    <circle cx="582" cy="110" r="0.6" fill="#fff" opacity="0.12"/><circle cx="408" cy="4" r="1.0" fill="#fff" opacity="0.37"/><circle cx="332" cy="171" r="1.6" fill="#fff" opacity="0.33"/><circle cx="376" cy="139" r="1.7" fill="#fff" opacity="0.46"/><circle cx="496" cy="76" r="1.8" fill="#fff" opacity="0.43"/><circle cx="439" cy="58" r="0.9" fill="#fff" opacity="0.45"/><circle cx="104" cy="293" r="0.9" fill="#fff" opacity="0.48"/><circle cx="181" cy="61" r="1.1" fill="#fff" opacity="0.40"/><circle cx="222" cy="130" r="0.7" fill="#fff" opacity="0.29"/><circle cx="422" cy="376" r="1.3" fill="#fff" opacity="0.20"/>
<rect width="640" height="400" fill="url(#p)" opacity=".12"/>
</svg>